<?xml version="1.0" standalone="no"?>
<!DOCTYPE svg PUBLIC "-//W3C//DTD SVG 1.1//EN" "http://www.w3.org/Graphics/SVG/1.1/DTD/svg11.dtd" >
<svg xmlns="http://www.w3.org/2000/svg">
<metadata></metadata>
<defs>
<font id="gongobold" horiz-adv-x="1112" >
<font-face units-per-em="2048" ascent="1536" descent="-512" />
<missing-glyph horiz-adv-x="500" />
<glyph horiz-adv-x="2048" />
<glyph horiz-adv-x="2048" />
<glyph horiz-adv-x="682" />
<glyph unicode="&#x9;" horiz-adv-x="716" />
<glyph unicode="&#xd;" horiz-adv-x="716" />
<glyph unicode="!" horiz-adv-x="378" d="M0 102q0 42 30 71.5t72 29.5q41 0 71 -30t30 -71q0 -42 -29.5 -72t-71.5 -30q-43 0 -72.5 29.5t-29.5 72.5zM35 426v940q0 29 19.5 48.5t47.5 19.5t48 -19.5t20 -48.5v-940q0 -28 -20 -48t-48 -20t-47.5 20t-19.5 48zM82 102q0 -20 20 -20q8 0 14.5 5.5t6.5 14.5 q0 8 -6.5 14.5t-14.5 6.5q-9 0 -14.5 -6.5t-5.5 -14.5z" />
<glyph unicode="&#x22;" horiz-adv-x="520" d="M0 1284v82q0 28 20 48t48 20q29 0 48 -20t19 -48v-82q0 -28 -19 -47.5t-48 -19.5q-28 0 -48 19.5t-20 47.5zM178 1284v82q0 28 20 48t48 20q29 0 48 -20t19 -48v-82q0 -28 -19 -47.5t-48 -19.5q-28 0 -48 19.5t-20 47.5z" />
<glyph unicode="#" horiz-adv-x="1105" d="M0 717v649q0 24 15 43t38 23q25 4 46 -6.5t30 -32.5l156 -353v326q0 28 19.5 48t47.5 20t48 -20t20 -48v-649q0 -25 -15 -43t-38 -23q-6 -2 -15 -2q-20 0 -37 11t-24 30l-156 352v-325q0 -28 -19.5 -48t-47.5 -20t-48 20t-20 48zM440 905q0 29 19.5 48.5t48.5 19.5h323 q28 0 48 -19.5t20 -48.5q0 -28 -20 -47.5t-48 -19.5h-323q-29 0 -48.5 19.5t-19.5 47.5zM446 1204q0 95 67.5 162.5t162.5 67.5t162 -67.5t67 -162.5t-67 -163t-162 -68t-162.5 68t-67.5 163zM582 1204q0 -40 28 -68t66 -28q40 0 67 28t27 68q0 39 -27.5 66.5t-66.5 27.5 q-38 0 -66 -28t-28 -66z" />
<glyph unicode="$" horiz-adv-x="1034" d="M0 373q0 28 19.5 47.5t48.5 19.5q28 0 47.5 -19.5t19.5 -47.5q0 -96 59 -171t150 -98v562q-134 39 -219 118q-125 113 -125 279q0 151 98.5 265.5t245.5 139.5v19q0 29 20 48t48 19t47.5 -19t19.5 -48v-19q147 -25 245.5 -139.5t98.5 -265.5q0 -29 -19 -48.5t-48 -19.5 q-28 0 -48 19.5t-20 48.5q0 96 -58.5 170.5t-150.5 97.5v-561q132 -42 219 -119q125 -113 125 -278q0 -153 -98.5 -268t-245.5 -140v-18q0 -28 -19.5 -48t-47.5 -20t-48 20t-20 48v18q-147 25 -245.5 140t-98.5 268zM135 1063q0 -52 19 -95.5t52.5 -73.5t66.5 -50t71 -35 v522q-92 -23 -150.5 -97.5t-58.5 -170.5zM479 104q91 23 150 98t59 171q0 52 -19 95.5t-52.5 73.5t-66.5 50t-71 35v-523z" />
<glyph unicode="%" horiz-adv-x="780" d="M0 993q0 41 30 71t72 30q41 0 71 -30t30 -71q0 -43 -29.5 -72.5t-71.5 -29.5q-43 0 -72.5 29.5t-29.5 72.5zM82 993q0 -20 20 -20q8 0 14.5 5.5t6.5 14.5q0 7 -6.5 14t-14.5 7q-9 0 -14.5 -6.5t-5.5 -14.5zM117 330l209 819q6 28 30 42.5t52 6.5q27 -6 41 -30t8 -52 l-209 -819q-4 -23 -23 -37t-41 -14q-12 0 -18 2q-26 6 -40.5 30t-8.5 52zM375 446q0 42 29.5 71.5t72.5 29.5q41 0 71 -30t30 -71q0 -42 -30 -72t-71 -30q-43 0 -72.5 29.5t-29.5 72.5zM457 446q0 -20 20 -20q8 0 14.5 5.5t6.5 14.5q0 8 -7 14.5t-14 6.5q-9 0 -14.5 -6.5 t-5.5 -14.5z" />
<glyph unicode="&#x26;" horiz-adv-x="663" d="M0 553q0 97 68 162q-68 65 -68 162q0 95 67 162t162 67t162.5 -67t67.5 -162q0 -28 -19.5 -48t-48.5 -20q-28 0 -47.5 20t-19.5 48q0 40 -27.5 67t-67.5 27q-39 0 -66.5 -27.5t-27.5 -66.5q0 -38 28 -66.5t66 -28.5q28 0 48 -19.5t20 -47.5t-20 -48t-48 -20 q-38 0 -66 -28t-28 -66q0 -39 27.5 -66.5t66.5 -27.5q40 0 67.5 27t27.5 67q0 28 19.5 48t47.5 20q29 0 48.5 -20t19.5 -48q0 -95 -67.5 -162t-162.5 -67t-162 67t-67 162zM162 100v103q0 29 19.5 48t47.5 19t48 -19t20 -48v-103q0 -28 -20 -47.5t-48 -19.5t-47.5 19.5 t-19.5 47.5zM162 1223v102q0 28 19.5 48t47.5 20t48 -20t20 -48v-102q0 -28 -20 -48t-48 -20t-47.5 20t-19.5 48z" />
<glyph unicode="'" horiz-adv-x="339" d="M0 1284v82q0 28 20 48t48 20q29 0 48 -20t19 -48v-82q0 -28 -19 -47.5t-48 -19.5q-28 0 -48 19.5t-20 47.5z" />
<glyph unicode="(" horiz-adv-x="544" d="M0 717q0 319 106 536q48 93 121 166q22 15 43 15q31 0 52 -25q19 -23 16 -50t-25 -46q-43 -37 -86 -123q-92 -184 -92 -473q0 -306 90 -486q6 -12 13 -23.5t13 -20.5t12 -17t11 -14t9.5 -11t8.5 -8.5t6.5 -6l4.5 -4.5l2 -1q24 -13 30.5 -40t-7.5 -52q-20 -33 -58 -33 q-17 0 -34 10q-10 5 -26 18t-45.5 49.5t-55.5 84.5q-109 210 -109 555z" />
<glyph unicode=")" horiz-adv-x="544" d="M0 1359q-3 27 16 50q21 25 52 25q20 0 43 -15q71 -71 120 -166q107 -219 107 -536q0 -345 -109 -555q-26 -48 -55.5 -84.5t-45.5 -49.5t-26 -18q-17 -10 -34 -10q-38 0 -58 33q-14 25 -7.5 52t30.5 40l2 1l4.5 4.5t6.5 6t8.5 8.5t9.5 11t11 14t12 17t13 20.5t13 23.5 q90 180 90 486q0 289 -92 473q-19 38 -40.5 69t-33.5 43l-12 11q-22 19 -25 46z" />
<glyph unicode="*" horiz-adv-x="915" d="M8 1081q0 29 20 48.5t48 19.5h121l-82 84q-20 20 -20 48t20 48q19 20 46.5 20t47.5 -20l84 -84v121q0 28 19.5 48t47.5 20t48 -20t20 -48v-125l88 88q19 20 46.5 20t47.5 -20t20 -48t-20 -48l-82 -84h117q28 0 48 -19.5t20 -48.5q0 -28 -20 -47.5t-48 -19.5h-121l86 -86 q20 -20 20 -48.5t-20 -48.5t-47 -20t-47 20l-88 89v-121q0 -28 -20 -48t-48 -20t-47.5 20t-19.5 48v116l-84 -84q-20 -20 -47 -20t-47 20t-20 48.5t20 48.5l86 86h-125q-28 0 -48 19.5t-20 47.5z" />
<glyph unicode="+" horiz-adv-x="911" d="M0 674q0 29 20 48t48 19h215v217q0 28 19.5 48t47.5 20q29 0 48.5 -20t19.5 -48v-217h217q28 0 47.5 -19t19.5 -48q0 -28 -19.5 -48t-47.5 -20h-217v-215q0 -28 -19.5 -47.5t-48.5 -19.5q-28 0 -47.5 19.5t-19.5 47.5v215h-215q-28 0 -48 20t-20 48z" />
<glyph unicode="," horiz-adv-x="405" d="M-32 -44.5q0 27.5 20 46.5l80 82q20 20 48 20t48 -20t20 -48t-20 -48l-82 -80q-18 -21 -47 -21t-47 21q-20 20 -20 47.5z" />
<glyph unicode="-" horiz-adv-x="911" d="M0 674q0 29 20 48t48 19h567q29 0 48 -19t19 -48q0 -28 -19 -48t-48 -20h-567q-28 0 -48 20t-20 48z" />
<glyph unicode="." horiz-adv-x="409" d="M0 102q0 42 30 71.5t72 29.5q41 0 71 -30t30 -71q0 -42 -29.5 -72t-71.5 -30q-43 0 -72.5 29.5t-29.5 72.5zM82 102q0 -20 20 -20q8 0 14.5 5.5t6.5 14.5q0 8 -6.5 14.5t-14.5 6.5q-9 0 -14.5 -6.5t-5.5 -14.5z" />
<glyph unicode="/" horiz-adv-x="665" d="M2 84l326 1296q6 28 30 42.5t52 7.5q27 -6 41 -30t8 -52l-326 -1297q-4 -23 -22.5 -37t-40.5 -14q-13 0 -19 2q-26 6 -40.5 30t-8.5 52z" />
<glyph unicode="0" horiz-adv-x="1116" d="M0 418v588q0 187 133.5 319.5t321.5 132.5q186 0 319 -132.5t133 -319.5v-588q0 -187 -133 -320t-319 -133q-188 0 -321.5 133t-133.5 320zM135 418q0 -132 94 -225t226 -93q131 0 224 93t93 225v588q0 130 -93 223.5t-224 93.5q-132 0 -226 -93t-94 -224v-588zM227 309 l326 852q9 26 34 37t52 2q27 -10 38.5 -35.5t2.5 -52.5l-326 -850q-16 -45 -63 -45q-11 0 -23 4q-26 10 -38 36t-3 52z" />
<glyph unicode="1" horiz-adv-x="665" d="M0 72q0 28 20 47.5t48 19.5h98v1078h-14q-28 0 -48 19.5t-20 47.5t20 48t48 20q7 0 10 2t3.5 4.5t0.5 7.5q0 28 19.5 48t47.5 20t48 -20t20 -48v-1227h92q28 0 48 -19.5t20 -47.5q0 -29 -20 -48.5t-48 -19.5h-325q-28 0 -48 19.5t-20 48.5z" />
<glyph unicode="2" d="M0 72q0 11 2 32.5t14 77t33 107.5q99 239 334 360q103 54 176.5 102t113.5 83.5t63 71t28.5 59.5t5.5 53q0 132 -93 224.5t-224 92.5q-132 0 -225 -92.5t-93 -224.5q0 -28 -19.5 -48t-47.5 -20q-29 0 -48.5 20t-19.5 48q0 187 132.5 319.5t320.5 132.5q187 0 319.5 -132 t132.5 -320q0 -137 -104.5 -248.5t-356.5 -241.5q-188 -95 -268 -284q-24 -62 -33 -105h695q28 0 47.5 -19.5t19.5 -47.5q0 -29 -19.5 -48.5t-47.5 -19.5h-770q-32 0 -50 21q-21 21 -18 47z" />
<glyph unicode="3" horiz-adv-x="1105" d="M0 418q0 28 20 47.5t48 19.5t47.5 -19.5t19.5 -47.5q0 -132 93 -225t225 -93q131 0 223 93t92 225q0 126 -100.5 221.5t-235.5 95.5q-43 0 -59 37q-19 37 4 70l330 450h-639q-28 0 -48 20t-20 48t20 47.5t48 19.5h770q43 0 59 -36q19 -37 -4 -70l-340 -467 q151 -39 250.5 -161.5t99.5 -274.5q0 -188 -131.5 -320.5t-318.5 -132.5h-2q-187 0 -319 132.5t-132 320.5z" />
<glyph unicode="4" horiz-adv-x="1032" d="M8 401q-18 35 2 68l568 932q12 20 32.5 28.5t42.5 2.5q23 -6 36 -24t13 -42v-864h56q28 0 47.5 -20t19.5 -48q0 -29 -19.5 -48t-47.5 -19h-56v-299q0 -28 -19 -48t-48 -20q-28 0 -48 20t-20 48v299h-499q-42 0 -60 34zM188 502h379v622z" />
<glyph unicode="5" horiz-adv-x="1105" d="M0 418q0 28 19.5 47.5t48.5 19.5q28 0 47.5 -19.5t19.5 -47.5q0 -132 93 -225t225 -93q131 0 224 93t93 225q0 135 -91 226t-226 91q-53 0 -102.5 -10.5t-81.5 -23.5t-60 -30t-38 -25t-15 -13q-39 -34 -80 -12q-20 11 -29.5 30t-5.5 41l121 680q5 23 23.5 39t43.5 16h568 q28 0 47.5 -19.5t19.5 -47.5t-19.5 -48t-47.5 -20h-512l-84 -473q119 51 252 51q193 0 323 -133q129 -132 129 -319q0 -188 -132.5 -320.5t-319.5 -132.5t-320 132.5t-133 320.5z" />
<glyph unicode="6" horiz-adv-x="1079" d="M-0.5 466q-0.5 35 5 109t18.5 148q66 353 282 569q90 90 180 135q25 12 51.5 3.5t38.5 -33.5q13 -25 5 -51.5t-33 -38.5l-9 -5q-8 -5 -22.5 -14.5t-32 -22t-40 -31t-42.5 -38.5q-167 -167 -231 -426q128 100 285 100q187 0 319.5 -132t132.5 -320t-132.5 -320.5 t-319.5 -132.5q-122 0 -226 60t-165 163.5t-62 225.5q-2 17 -2.5 52zM137 418q0 -132 93.5 -225t224.5 -93q132 0 224.5 93t92.5 225q0 131 -92.5 224t-224.5 93q-131 0 -224.5 -93.5t-93.5 -223.5z" />
<glyph unicode="7" horiz-adv-x="1064" d="M0 1360q0 28 19.5 47.5t48.5 19.5h729q40 0 59 -36q19 -37 -4 -70q-3 -3 -49 -71.5t-126.5 -197t-146.5 -245.5q-88 -158 -167 -347.5t-114.5 -296t-35.5 -114.5q-7 -22 -25.5 -35.5t-40.5 -13.5q-6 0 -18 4q-28 8 -41 32t-4 52q7 29 40 127t115 295t173 362 q109 194 258 420h-602q-29 0 -48.5 20t-19.5 48z" />
<glyph unicode="8" horiz-adv-x="1157" d="M0 438q0 133 68 245t182 173q-60 48 -94.5 119t-34.5 151q0 146 103 249.5t249 103.5q145 0 247.5 -103.5t102.5 -249.5q0 -81 -34 -151.5t-95 -118.5q114 -61 183 -173t69 -245q0 -196 -139 -334.5t-334 -138.5q-97 0 -184.5 37.5t-150.5 100.5t-100.5 150.5 t-37.5 184.5zM135 438q0 -140 99.5 -239t238.5 -99t238.5 99t99.5 239t-99.5 239t-238.5 99t-238.5 -99t-99.5 -239zM256 1126q0 -89 63 -152t154 -63q89 0 152 63t63 152t-63 153t-152 64q-90 0 -153.5 -63.5t-63.5 -153.5z" />
<glyph unicode="9" horiz-adv-x="1079" d="M0 983q0 187 133 320t320 133q186 0 318 -131.5t134 -317.5q2 -18 2.5 -52t-4.5 -108.5t-18 -148.5q-65 -351 -283 -569q-39 -39 -85 -73.5t-65.5 -46t-29.5 -16.5q-25 -12 -51.5 -3t-38.5 34q-13 25 -5 51.5t33 38.5l8 5q9 5 23.5 14.5t32 22t40 31t42.5 38.5 q167 167 231 426q-129 -101 -284 -101q-187 0 -320 133t-133 320zM135 983q0 -131 93 -224t225 -93q131 0 224 93t93 224q0 132 -93 224.5t-224 92.5q-132 0 -225 -92.5t-93 -224.5z" />
<glyph unicode=":" horiz-adv-x="409" d="M0 102q0 41 29.5 71t70.5 30q43 0 73 -30t30 -71q0 -43 -30 -72.5t-73 -29.5q-41 0 -70.5 29.5t-29.5 72.5zM0 791q0 43 29.5 72.5t70.5 29.5q43 0 73 -29.5t30 -72.5q0 -41 -30 -71t-73 -30q-41 0 -70.5 30t-29.5 71zM80 102q0 -9 6 -14.5t14 -5.5q21 0 21 20 q0 8 -6 14.5t-15 6.5q-7 0 -13.5 -6.5t-6.5 -14.5zM80 791q0 -8 6.5 -14.5t13.5 -6.5q9 0 15 6.5t6 14.5q0 20 -21 20q-8 0 -14 -5.5t-6 -14.5z" />
<glyph unicode=";" horiz-adv-x="403" d="M-32 -46.5q0 27.5 20 46.5l80 82q20 20 48 20t48 -20t20 -48t-20 -48l-82 -80q-18 -21 -47 -21t-47 21q-20 20 -20 47.5zM-16 791q0 42 30 72t72 30q41 0 70.5 -29.5t29.5 -72.5q0 -41 -29.5 -71t-70.5 -30t-71.5 30t-30.5 71zM66 791q0 -8 5.5 -14.5t14.5 -6.5 q7 0 13.5 6.5t6.5 14.5q0 9 -6 14.5t-14 5.5q-20 0 -20 -20z" />
<glyph unicode="&#x3c;" horiz-adv-x="749" d="M-4 676q0 37 33 57l405 244q23 14 51 7t41 -30q14 -25 7.5 -52t-29.5 -42l-309 -184l309 -187q23 -13 29.5 -40t-7.5 -52q-19 -32 -57 -32q-18 0 -35 10l-405 243q-33 20 -33 58z" />
<glyph unicode="=" horiz-adv-x="911" d="M0 403q0 29 20 48.5t48 19.5h567q29 0 48 -19.5t19 -48.5q0 -28 -19 -47.5t-48 -19.5h-567q-28 0 -48 19.5t-20 47.5zM0 944q0 29 20 48.5t48 19.5h567q29 0 48 -19.5t19 -48.5t-19.5 -50t-47.5 -17h-567q-28 0 -48 19.5t-20 47.5z" />
<glyph unicode="&#x3e;" horiz-adv-x="749" d="M-1 449q7 27 30 40l309 187l-309 184q-23 15 -30 42t7 52q13 23 41 30t51 -7l406 -244q33 -20 33 -57q0 -38 -33 -58l-406 -243q-17 -10 -35 -10q-38 0 -57 32q-14 25 -7 52z" />
<glyph unicode="?" horiz-adv-x="995" d="M0 1040q0 163 116 278.5t279 115.5q166 0 279 -113q117 -114 117 -279q0 -62 -15 -114.5t-46 -95.5t-54 -67.5t-62 -59.5q-32 -28 -47 -43q-65 -65 -83.5 -97t-18.5 -98q0 -28 -20 -48t-48 -20t-47.5 20t-19.5 48q0 54 8.5 94.5t32.5 77.5t41 56.5t59 62.5q9 8 27.5 24.5 t27.5 24.5q63 55 96 106t33 129q0 106 -76.5 181t-183.5 75t-183.5 -75.5t-76.5 -182.5q0 -28 -19 -47.5t-48 -19.5q-28 0 -48 19.5t-20 47.5zM297 102q0 41 29.5 71t70.5 30t72 -30t31 -71q0 -42 -30.5 -72t-72.5 -30q-41 0 -70.5 29.5t-29.5 72.5zM377 102q0 -9 6 -14.5 t14 -5.5q21 0 21 20q0 8 -6 14.5t-15 6.5q-7 0 -13.5 -6.5t-6.5 -14.5z" />
<glyph unicode="@" horiz-adv-x="1718" d="M0 723q0 154 60 294.5t161.5 242t241.5 161.5t293 60q154 0 294 -60t241.5 -161.5t161.5 -242t60 -294.5q0 -22 -6 -33t-26 -24l-426 -265q-17 -10 -35 -10q-16 0 -33 10q-32 16 -35 56q-89 -66 -196 -66q-136 0 -233 97.5t-97 234.5t97 234.5t233 97.5q107 0 196 -66 q2 28 21 47t47 19t47.5 -20t19.5 -48v-405l289 178q-9 161 -93.5 295.5t-224 212.5t-302.5 78q-168 0 -311 -84t-226.5 -227.5t-83.5 -311.5t83.5 -311.5t226.5 -227.5t311 -84q29 0 48 -19t19 -48q0 -28 -19 -48t-48 -20q-153 0 -293 60t-241.5 161.5t-161.5 242t-60 294.5 zM561 723q0 -81 57.5 -139t137.5 -58q82 0 139 57.5t57 139.5t-57 139.5t-139 57.5q-80 0 -137.5 -58t-57.5 -139z" />
<glyph unicode="A" horiz-adv-x="1009" d="M-120 52q-2 9 -2 18q0 18 9 34l729 1295q12 21 33 29q12 5 25 4q9 0 18 -2q23 -4 37 -23t14 -43v-1296q0 -28 -19.5 -48t-47.5 -20t-48 20t-20 48v301h-418l-186 -330q-13 -25 -40 -33t-52 6q-25 13 -32 40zM268 504h340v604z" />
<glyph unicode="B" horiz-adv-x="1024" d="M0 72v1288q0 28 20 47.5t48 19.5h325q165 0 277 -112q114 -111 114 -275q0 -100 -46.5 -184.5t-125.5 -138.5q80 -55 126 -141t46 -185q0 -163 -114 -274q-113 -113 -277 -113h-325q-28 0 -48 20t-20 48zM135 139h258q107 0 181.5 73t74.5 179t-75 182t-181 76 q-29 0 -48 19.5t-19 48.5q0 28 19 47.5t48 19.5q106 0 181 75t75 181t-74.5 179t-181.5 73h-258v-1153z" />
<glyph unicode="C" horiz-adv-x="950" d="M-82 717q0 145 57 277.5t153 228.5t228.5 152.5t278.5 56.5q28 0 47.5 -19.5t19.5 -48.5q0 -28 -19.5 -48t-47.5 -20q-119 0 -226.5 -46t-185.5 -123.5t-124 -184.5t-46 -225q0 -158 78 -292t212 -212t292 -78q28 0 47.5 -19.5t19.5 -47.5t-19.5 -48t-47.5 -20 q-145 0 -278 57t-229 153t-153 229t-57 278z" />
<glyph unicode="D" horiz-adv-x="995" d="M0 68v1296q0 29 19.5 48.5t48.5 19.5q145 0 277 -56.5t228 -152.5t152.5 -228.5t56.5 -277.5t-56.5 -278t-152.5 -229t-228 -153t-277 -57q-29 0 -48.5 20t-19.5 48zM135 139q218 25 365 190t147 388q0 146 -67.5 272.5t-184.5 207t-260 97.5v-1155z" />
<glyph unicode="E" horiz-adv-x="888" d="M0 72v1288q0 28 19.5 47.5t48.5 19.5h546q28 0 48 -19.5t20 -47.5t-20 -48t-48 -20h-479v-508h479q28 0 48 -19.5t20 -47.5q0 -29 -20 -48.5t-48 -19.5h-479v-510h479q28 0 48 -19.5t20 -47.5t-20 -48t-48 -20h-546q-29 0 -48.5 20t-19.5 48z" />
<glyph unicode="F" horiz-adv-x="888" d="M0 68v1292q0 28 20 47.5t48 19.5h546q28 0 48 -19.5t20 -47.5t-20 -48t-48 -20h-479v-508h479q28 0 48 -19.5t20 -47.5q0 -29 -20 -48.5t-48 -19.5h-479v-581q0 -28 -19.5 -48t-47.5 -20t-48 20t-20 48z" />
<glyph unicode="G" horiz-adv-x="1110" d="M0 418v588q0 187 133.5 320.5t319.5 133.5q123 0 227.5 -61t165.5 -165.5t61 -227.5q0 -28 -19.5 -48t-47.5 -20q-29 0 -48.5 20t-19.5 48q0 132 -93.5 225.5t-225.5 93.5q-131 0 -224.5 -93.5t-93.5 -225.5v-588q0 -130 93.5 -224t224.5 -94q132 0 225.5 93.5 t93.5 224.5v155h-299q-28 0 -47.5 20t-19.5 48t19.5 48t47.5 20h367q28 0 47.5 -20t19.5 -48v-567q0 -28 -19.5 -48t-47.5 -20q-29 0 -48.5 20t-19.5 48v22q-134 -131 -319 -131q-186 0 -319.5 133t-133.5 320z" />
<glyph unicode="H" horiz-adv-x="991" d="M0 68v1296q0 28 20 48t48 20t47.5 -20t19.5 -48v-582h514v582q0 28 19.5 48t48.5 20q28 0 47.5 -20t19.5 -48v-1296q0 -29 -19.5 -48.5t-47.5 -19.5q-29 0 -48.5 19.5t-19.5 48.5v579h-514v-579q0 -29 -19.5 -48.5t-47.5 -19.5t-48 19.5t-20 48.5z" />
<glyph unicode="I" horiz-adv-x="339" d="M0 68v1296q0 28 20 48t48 20t47.5 -20t19.5 -48v-1296q0 -29 -19.5 -48.5t-47.5 -19.5t-48 19.5t-20 48.5z" />
<glyph unicode="J" horiz-adv-x="1030" d="M0 379q0 28 20 47.5t48 19.5q29 0 48 -19.5t19 -47.5q0 -115 81.5 -197t197.5 -82q114 0 195 82t81 197v987q0 28 20 48t48 20t47.5 -20t19.5 -48v-987q0 -171 -120.5 -292.5t-290.5 -121.5t-292 122t-122 292z" />
<glyph unicode="K" horiz-adv-x="909" d="M0 68v1298q0 28 20 48t48 20t47.5 -20t19.5 -48v-541l447 582q17 22 44.5 25.5t49.5 -13.5q23 -17 27 -44.5t-15 -49.5l-393 -512l477 -707q11 -19 11 -39q0 -7 -1 -13q-5 -27 -28 -42q-15 -12 -37 -12q-36 0 -55 31l-453 667l-74 -94v-536q0 -28 -19.5 -48t-47.5 -20 t-48 20t-20 48z" />
<glyph unicode="L" horiz-adv-x="983" d="M0 72v1294q0 28 19.5 48t48.5 20q28 0 47.5 -20t19.5 -48v-1227h580q29 0 48 -19.5t19 -47.5t-19 -48t-48 -20h-647q-29 0 -48.5 20t-19.5 48z" />
<glyph unicode="M" horiz-adv-x="1599" d="M-81 46q-4 11 -4 22q0 15 7 30l649 1297q10 21 31 31q14 7 30 8q7 0 15 -2q23 -6 38 -24.5t15 -43.5v-1010l521 1041q10 22 31 32q14 7 29 7q7 0 15 -2q23 -6 37.5 -24.5t14.5 -43.5v-1296q0 -28 -19.5 -48t-48.5 -20q-28 0 -48 20t-20 48v1011l-520 -1042 q-10 -21 -32 -31q-13 -6 -26 -6q-9 0 -18 2q-23 4 -37 23t-14 43v1011l-522 -1042q-19 -37 -59 -37q-16 0 -31 6q-25 14 -34 40z" />
<glyph unicode="N" horiz-adv-x="989" d="M0 68v1296q0 24 14 43t37 23q9 2 18 2q13 0 27 -6q22 -10 31 -31l522 -1043v1012q0 28 19.5 48t48.5 20q28 0 47.5 -20t19.5 -48v-1296q0 -25 -15 -43.5t-38 -24.5h-14q-44 0 -62 37l-520 1040v-1009q0 -29 -19.5 -48.5t-47.5 -19.5t-48 19.5t-20 48.5z" />
<glyph unicode="O" d="M0 418v588q0 187 132.5 319.5t320.5 132.5q187 0 319.5 -132t132.5 -320v-588q0 -188 -132.5 -320.5t-319.5 -132.5t-320 132.5t-133 320.5zM135 418q0 -131 93 -224.5t225 -93.5t224.5 93.5t92.5 224.5v588q0 132 -92.5 224.5t-224.5 92.5t-225 -92.5t-93 -224.5v-588z " />
<glyph unicode="P" horiz-adv-x="952" d="M0 68v1292q0 29 20 48t48 19h223q187 0 319 -129q133 -130 133 -317q0 -188 -132.5 -321.5t-319.5 -133.5h-156v-458q0 -28 -19.5 -48t-47.5 -20t-48 20t-20 48zM135 662h156q131 0 224 93.5t93 225.5q0 131 -92 221t-225 90h-156v-630z" />
<glyph unicode="Q" horiz-adv-x="1110" d="M0 418v588q0 187 132.5 319.5t320.5 132.5q187 0 319.5 -132t132.5 -320v-588q0 -176 -123 -309q34 -9 72 -9q28 0 48 -19.5t20 -47.5t-20 -48t-48 -20q-109 0 -201 47q-89 -47 -200 -47q-187 0 -320 132.5t-133 320.5zM135 418q0 -130 93.5 -224t224.5 -94q36 0 71 9 q-58 61 -90.5 141t-32.5 168q0 28 20 47.5t48 19.5t48 -19.5t20 -47.5q0 -73 31 -138t85 -108q55 43 86 108t31 138v588q0 132 -92.5 224.5t-224.5 92.5q-131 0 -224.5 -92.5t-93.5 -224.5v-588z" />
<glyph unicode="R" horiz-adv-x="991" d="M0 68v1292q0 28 20 47.5t48 19.5h264q187 0 319 -129q133 -133 133 -319q0 -155 -94.5 -276t-240.5 -160l303 -437q15 -23 10.5 -51t-27.5 -43q-18 -12 -39 -12q-36 0 -55 29l-365 526q-10 15 -12 35t6 35q19 37 62 37q130 0 223.5 93t93.5 224q0 132 -91.5 222.5 t-225.5 90.5h-197v-1224q0 -28 -19.5 -48t-47.5 -20t-48 20t-20 48z" />
<glyph unicode="S" horiz-adv-x="1034" d="M0 377q0 29 20 48t48 19t47.5 -19t19.5 -48q0 -114 81.5 -195.5t195.5 -81.5q115 0 196.5 81.5t81.5 195.5q0 198 -293 266q-167 38 -270 131q-127 115 -127 279q0 170 121 291.5t291 121.5t291.5 -121.5t121.5 -291.5q0 -28 -19.5 -48t-47.5 -20q-29 0 -48.5 20 t-19.5 48q0 115 -81 196.5t-197 81.5q-114 0 -195.5 -81.5t-81.5 -196.5q0 -56 24.5 -103t57.5 -75.5t78 -51.5t74 -32.5t57 -16.5q190 -41 294.5 -145t104.5 -252q0 -170 -121.5 -291t-291.5 -121t-291 121t-121 291z" />
<glyph unicode="T" horiz-adv-x="1056" d="M0 1360q0 28 20 47.5t48 19.5h720q28 0 48 -19.5t20 -47.5t-20 -48t-48 -20h-292v-1224q0 -28 -20 -48t-48 -20t-48 20t-20 48v1224h-292q-28 0 -48 20t-20 48z" />
<glyph unicode="U" d="M0 418v948q0 28 20 48t48 20t47.5 -20t19.5 -48v-948q0 -132 93 -225t225 -93t224.5 93t92.5 225v948q0 28 20 48t48 20t47.5 -20t19.5 -48v-948q0 -188 -132.5 -320.5t-319.5 -132.5t-320 132.5t-133 320.5z" />
<glyph unicode="V" horiz-adv-x="1013" d="M0 68v1296q0 28 19.5 48t48.5 20q28 0 47.5 -20t19.5 -48v-1040l602 1069q13 25 40 32.5t52 -6.5q25 -13 33 -40q3 -10 3 -19q0 -17 -9 -33l-731 -1294q-17 -33 -57 -33q-13 0 -19 2q-22 6 -35.5 24.5t-13.5 41.5z" />
<glyph unicode="W" horiz-adv-x="1605" d="M-4 68v1296q0 28 19 48t48 20q28 0 48 -20t20 -48v-1012l520 1043q9 21 31 31q13 6 27 6q9 0 18 -2q23 -4 37 -23t14 -43v-1012l522 1043q19 37 60 37q13 0 31 -7q25 -14 33 -40q4 -11 4 -22q0 -15 -7 -30l-649 -1296q-10 -21 -31 -31q-14 -7 -30 -8q-7 0 -15 2 q-23 6 -38 24.5t-15 43.5v1009l-520 -1040q-10 -21 -31 -31q-14 -7 -30 -8q-7 0 -15 2q-23 6 -37 24.5t-14 43.5z" />
<glyph unicode="X" horiz-adv-x="1116" d="M3 50q-2 9 -2 18q0 18 9 34l367 615l-367 614q-9 15 -9 32q1 9 3 19q8 28 31 41q17 9 34 9q9 0 18 -2q27 -7 40 -31l328 -551l327 551q13 24 40 31q9 2 18 2q18 0 34 -9q26 -13 32 -41q2 -8 1 -16q0 -18 -10 -35l-365 -614l365 -615q10 -17 10 -36q1 -8 -1 -16 q-6 -27 -32 -42q-13 -8 -34 -8q-38 0 -58 33l-327 551l-328 -551q-20 -33 -57 -33q-22 0 -35 8q-25 15 -32 42z" />
<glyph unicode="Y" horiz-adv-x="911" d="M-77 1388q9 27 34 37q15 7 30 7q11 0 23 -4q27 -9 37 -35l264 -559l262 559q12 26 39 35q12 4 23 4q15 0 29 -7q26 -10 35 -37q4 -12 4 -23q0 -15 -7 -30l-317 -676v-591q0 -28 -20 -48t-48 -20t-47.5 20t-19.5 48v591l-318 676q-7 15 -7 30q0 11 4 23z" />
<glyph unicode="Z" horiz-adv-x="1032" d="M-2 1360q0 28 19.5 47.5t48.5 19.5h688q40 0 59 -32q10 -16 10 -32.5t-10 -33.5l-635 -1190h576q28 0 47.5 -19.5t19.5 -47.5t-19.5 -48t-47.5 -20h-688q-40 0 -60 33q-10 16 -10 32.5t10 34.5l635 1188h-575q-29 0 -48.5 20t-19.5 48z" />
<glyph unicode="[" horiz-adv-x="462" d="M0 68v1296q0 29 20 48.5t48 19.5h122q28 0 48 -19.5t20 -48.5q0 -28 -20 -48t-48 -20h-55v-1161h55q28 0 48 -19.5t20 -47.5t-20 -48t-48 -20h-122q-28 0 -48 20t-20 48z" />
<glyph unicode="\" horiz-adv-x="665" d="M2 1348q-6 28 8 52t41 30q28 7 52 -7.5t30 -42.5l326 -1296q6 -28 -8.5 -52t-40.5 -30q-6 -2 -19 -2q-22 0 -40.5 14t-22.5 37z" />
<glyph unicode="]" horiz-adv-x="462" d="M0 68q0 28 20 47.5t48 19.5h55v1161h-55q-28 0 -48 20t-20 48q0 29 20 48.5t48 19.5h122q28 0 48 -19.5t20 -48.5v-1296q0 -28 -20 -48t-48 -20h-122q-28 0 -48 20t-20 48z" />
<glyph unicode="^" horiz-adv-x="831" d="M3 945q-7 27 7 50l244 406q20 33 57 33q40 0 60 -33l241 -406q15 -23 9 -50t-31 -42q-17 -10 -35 -10q-37 0 -57 33l-187 309l-184 -309q-15 -23 -42 -30t-52 7q-23 15 -30 42z" />
<glyph unicode="_" horiz-adv-x="1026" d="M0 72q0 28 19.5 47.5t48.5 19.5h688q29 0 48 -19.5t19 -47.5q0 -29 -19 -48.5t-48 -19.5h-688q-29 0 -48.5 19.5t-19.5 48.5z" />
<glyph unicode="a" horiz-adv-x="948" d="M-119 86q363 1290 365 1296l4 8q3 7 8 13.5t12 14t18.5 12t24.5 4.5q47 0 64 -52l364 -1296q3 -10 3 -20q0 -16 -8 -32q-14 -24 -42 -32q-6 -2 -18 -2q-22 0 -40 13t-24 36l-90 316h-422l-88 -316q-6 -23 -23.5 -36t-41.5 -13q-13 0 -19 2q-26 8 -40 32q-9 16 -9 34 q0 9 2 18zM139 500h346l-174 616z" />
<glyph unicode="b" horiz-adv-x="1024" d="M0 72v1288q0 28 20 47.5t48 19.5h325q165 0 277 -112q114 -111 114 -275q0 -100 -46.5 -184.5t-125.5 -138.5q80 -55 126 -141t46 -185q0 -163 -114 -274q-113 -113 -277 -113h-325q-28 0 -48 20t-20 48zM135 139h258q107 0 181.5 73t74.5 179t-75 182t-181 76 q-29 0 -48 19.5t-19 48.5q0 28 19 47.5t48 19.5q106 0 181 75t75 181t-74.5 179t-181.5 73h-258v-1153z" />
<glyph unicode="c" horiz-adv-x="1114" d="M0 418v594q0 187 132.5 319.5t320.5 132.5q187 0 319.5 -132t132.5 -320q0 -28 -19 -48t-48 -20q-28 0 -48 20t-20 48q0 132 -92.5 224.5t-224.5 92.5q-131 0 -224.5 -92.5t-93.5 -224.5v-594q0 -132 93.5 -225t224.5 -93q132 0 224.5 93t92.5 225q0 28 20 47.5t48 19.5 q29 0 48 -19.5t19 -47.5q0 -188 -132.5 -320.5t-319.5 -132.5t-320 132.5t-133 320.5z" />
<glyph unicode="d" horiz-adv-x="1073" d="M0 68v1292q0 28 20 47.5t48 19.5h323q198 0 336 -135q66 -66 101.5 -154t35.5 -184v-485q0 -194 -137 -334q-141 -135 -336 -135h-6h-6h-311q-28 0 -48 20t-20 48zM135 135h244h6h6q140 0 239 98t99 236v485q0 138 -99.5 238t-238.5 100h-256v-1157z" />
<glyph unicode="e" horiz-adv-x="888" d="M0 72v1288q0 28 19.5 47.5t48.5 19.5h546q28 0 48 -19.5t20 -47.5t-20 -48t-48 -20h-479v-508h479q28 0 48 -19.5t20 -47.5q0 -29 -20 -48.5t-48 -19.5h-479v-510h479q28 0 48 -19.5t20 -47.5t-20 -48t-48 -20h-546q-29 0 -48.5 20t-19.5 48z" />
<glyph unicode="f" horiz-adv-x="888" d="M0 68v1292q0 28 20 47.5t48 19.5h546q28 0 48 -19.5t20 -47.5t-20 -48t-48 -20h-479v-508h479q28 0 48 -19.5t20 -47.5q0 -29 -20 -48.5t-48 -19.5h-479v-581q0 -28 -19.5 -48t-47.5 -20t-48 20t-20 48z" />
<glyph unicode="g" horiz-adv-x="1110" d="M0 418v588q0 187 133.5 320.5t319.5 133.5q123 0 227.5 -61t165.5 -165.5t61 -227.5q0 -28 -19.5 -48t-47.5 -20q-29 0 -48.5 20t-19.5 48q0 132 -93.5 225.5t-225.5 93.5q-131 0 -224.5 -93.5t-93.5 -225.5v-588q0 -130 93.5 -224t224.5 -94q132 0 225.5 93.5 t93.5 224.5v155h-299q-28 0 -47.5 20t-19.5 48t19.5 48t47.5 20h367q28 0 47.5 -20t19.5 -48v-567q0 -28 -19.5 -48t-47.5 -20q-29 0 -48.5 20t-19.5 48v22q-134 -131 -319 -131q-186 0 -319.5 133t-133.5 320z" />
<glyph unicode="h" horiz-adv-x="991" d="M0 68v1296q0 28 20 48t48 20t47.5 -20t19.5 -48v-582h514v582q0 28 19.5 48t48.5 20q28 0 47.5 -20t19.5 -48v-1296q0 -29 -19.5 -48.5t-47.5 -19.5q-29 0 -48.5 19.5t-19.5 48.5v579h-514v-579q0 -29 -19.5 -48.5t-47.5 -19.5t-48 19.5t-20 48.5z" />
<glyph unicode="i" horiz-adv-x="339" d="M0 68v1296q0 28 20 48t48 20t47.5 -20t19.5 -48v-1296q0 -29 -19.5 -48.5t-47.5 -19.5t-48 19.5t-20 48.5z" />
<glyph unicode="j" horiz-adv-x="1030" d="M0 379q0 28 20 47.5t48 19.5q29 0 48 -19.5t19 -47.5q0 -115 81.5 -197t197.5 -82q114 0 195 82t81 197v987q0 28 20 48t48 20t47.5 -20t19.5 -48v-987q0 -171 -120.5 -292.5t-290.5 -121.5t-292 122t-122 292z" />
<glyph unicode="k" horiz-adv-x="909" d="M0 68v1298q0 28 20 48t48 20t47.5 -20t19.5 -48v-541l447 582q17 22 44.5 25.5t49.5 -13.5q23 -17 27 -44.5t-15 -49.5l-393 -512l477 -707q11 -19 11 -39q0 -7 -1 -13q-5 -27 -28 -42q-15 -12 -37 -12q-36 0 -55 31l-453 667l-74 -94v-536q0 -28 -19.5 -48t-47.5 -20 t-48 20t-20 48z" />
<glyph unicode="l" horiz-adv-x="983" d="M0 72v1294q0 28 19.5 48t48.5 20q28 0 47.5 -20t19.5 -48v-1227h580q29 0 48 -19.5t19 -47.5t-19 -48t-48 -20h-647q-29 0 -48.5 20t-19.5 48z" />
<glyph unicode="m" horiz-adv-x="1153" d="M0 68v1298q0 24 15.5 43t39.5 23q7 2 14 2q15 0 31 -8q22 -12 31 -35l342 -856l342 856q9 23 31 35q15 8 31 8q7 0 14 -2q24 -4 39.5 -23t15.5 -43v-1298q0 -28 -19.5 -48t-47.5 -20t-48 20t-20 48v946l-274 -688q-7 -18 -25 -29.5t-39 -11.5q-47 0 -63 41l-275 688v-946 q0 -28 -19.5 -48t-47.5 -20t-48 20t-20 48z" />
<glyph unicode="n" horiz-adv-x="989" d="M0 68v1296q0 24 14 43t37 23q9 2 18 2q13 0 27 -6q22 -10 31 -31l522 -1043v1012q0 28 19.5 48t48.5 20q28 0 47.5 -20t19.5 -48v-1296q0 -25 -15 -43.5t-38 -24.5h-14q-44 0 -62 37l-520 1040v-1009q0 -29 -19.5 -48.5t-47.5 -19.5t-48 19.5t-20 48.5z" />
<glyph unicode="o" d="M0 418v588q0 187 132.5 319.5t320.5 132.5q187 0 319.5 -132t132.5 -320v-588q0 -188 -132.5 -320.5t-319.5 -132.5t-320 132.5t-133 320.5zM135 418q0 -131 93 -224.5t225 -93.5t224.5 93.5t92.5 224.5v588q0 132 -92.5 224.5t-224.5 92.5t-225 -92.5t-93 -224.5v-588z " />
<glyph unicode="p" horiz-adv-x="952" d="M0 68v1292q0 29 20 48t48 19h223q187 0 319 -129q133 -130 133 -317q0 -188 -132.5 -321.5t-319.5 -133.5h-156v-458q0 -28 -19.5 -48t-47.5 -20t-48 20t-20 48zM135 662h156q131 0 224 93.5t93 225.5q0 131 -92 221t-225 90h-156v-630z" />
<glyph unicode="q" horiz-adv-x="1114" d="M0 418v588q0 187 132.5 319.5t320.5 132.5q187 0 319.5 -132t132.5 -320v-588q0 -135 -74 -248l60 -74q15 -19 15 -43v-7q-3 -27 -25 -44q-19 -16 -43 -16q-34 0 -52 24l-47 58q-128 -103 -286 -103q-187 0 -320 132.5t-133 320.5zM135 418q0 -130 93.5 -224t224.5 -94 q112 0 200 72l-233 285q-17 22 -14.5 49.5t24.5 44.5q22 19 49.5 16.5t46.5 -24.5l213 -262q31 64 31 137v588q0 132 -92.5 224.5t-224.5 92.5q-131 0 -224.5 -92.5t-93.5 -224.5v-588z" />
<glyph unicode="r" horiz-adv-x="991" d="M0 68v1292q0 28 20 47.5t48 19.5h264q187 0 319 -129q133 -133 133 -319q0 -155 -94.5 -276t-240.5 -160l303 -437q15 -23 10.5 -51t-27.5 -43q-18 -12 -39 -12q-36 0 -55 29l-365 526q-10 15 -12 35t6 35q19 37 62 37q130 0 223.5 93t93.5 224q0 132 -91.5 222.5 t-225.5 90.5h-197v-1224q0 -28 -19.5 -48t-47.5 -20t-48 20t-20 48z" />
<glyph unicode="s" horiz-adv-x="1034" d="M0 377q0 29 20 48t48 19t47.5 -19t19.5 -48q0 -114 81.5 -195.5t195.5 -81.5q115 0 196.5 81.5t81.5 195.5q0 198 -293 266q-167 38 -270 131q-127 115 -127 279q0 170 121 291.5t291 121.5t291.5 -121.5t121.5 -291.5q0 -28 -19.5 -48t-47.5 -20q-29 0 -48.5 20 t-19.5 48q0 115 -81 196.5t-197 81.5q-114 0 -195.5 -81.5t-81.5 -196.5q0 -56 24.5 -103t57.5 -75.5t78 -51.5t74 -32.5t57 -16.5q190 -41 294.5 -145t104.5 -252q0 -170 -121.5 -291t-291.5 -121t-291 121t-121 291z" />
<glyph unicode="t" horiz-adv-x="1056" d="M0 1360q0 28 20 47.5t48 19.5h720q28 0 48 -19.5t20 -47.5t-20 -48t-48 -20h-292v-1224q0 -28 -20 -48t-48 -20t-48 20t-20 48v1224h-292q-28 0 -48 20t-20 48z" />
<glyph unicode="u" d="M0 418v948q0 28 20 48t48 20t47.5 -20t19.5 -48v-948q0 -132 93 -225t225 -93t224.5 93t92.5 225v948q0 28 20 48t48 20t47.5 -20t19.5 -48v-948q0 -188 -132.5 -320.5t-319.5 -132.5t-320 132.5t-133 320.5z" />
<glyph unicode="v" horiz-adv-x="948" d="M-119 1348q-3 10 -3 19q0 15 8 31q14 24 40 32q10 3 20 3q16 0 32 -9q24 -14 32 -42l301 -1065l299 1065q8 28 32 42q16 9 32 9q10 0 20 -3q26 -8 40 -32q8 -15 8 -31q0 -9 -3 -19q-23 -83 -61 -218t-118 -421t-133 -474.5t-52 -185.5q-2 -5 -5.5 -13.5t-20 -22 t-38.5 -13.5q-23 0 -39 11.5t-20 20.5t-6 17z" />
<glyph unicode="w" horiz-adv-x="1392" d="M-84 1352q-1 7 -1 13q-1 20 11 39q16 24 43 28q6 1 11 1q22 -1 40 -13q24 -16 29 -42l191 -1018l245 861q6 22 24.5 35.5t41.5 13.5q22 0 39.5 -13.5t23.5 -35.5l246 -861l191 1018q6 26 29 42q18 12 39 13q5 0 11 -1q28 -4 44 -28q12 -17 12 -37q0 -7 -2 -15l-244 -1297 q-3 -23 -20 -38t-41 -17h-5q-23 0 -41 13.5t-24 35.5l-258 907l-260 -907q-5 -23 -25 -37q-17 -12 -37 -12h-6q-25 1 -41.5 16.5t-21.5 38.5z" />
<glyph unicode="x" horiz-adv-x="1116" d="M3 50q-2 9 -2 18q0 18 9 34l367 615l-367 614q-9 15 -9 32q1 9 3 19q8 28 31 41q17 9 34 9q9 0 18 -2q27 -7 40 -31l328 -551l327 551q13 24 40 31q9 2 18 2q18 0 34 -9q26 -13 32 -41q2 -8 1 -16q0 -18 -10 -35l-365 -614l365 -615q10 -17 10 -36q1 -8 -1 -16 q-6 -27 -32 -42q-13 -8 -34 -8q-38 0 -58 33l-327 551l-328 -551q-20 -33 -57 -33q-22 0 -35 8q-25 15 -32 42z" />
<glyph unicode="y" horiz-adv-x="911" d="M-77 1388q9 27 34 37q15 7 30 7q11 0 23 -4q27 -9 37 -35l264 -559l262 559q12 26 39 35q12 4 23 4q15 0 29 -7q26 -10 35 -37q4 -12 4 -23q0 -15 -7 -30l-317 -676v-591q0 -28 -20 -48t-48 -20t-47.5 20t-19.5 48v591l-318 676q-7 15 -7 30q0 11 4 23z" />
<glyph unicode="z" horiz-adv-x="1032" d="M-2 1360q0 28 19.5 47.5t48.5 19.5h688q40 0 59 -32q10 -16 10 -32.5t-10 -33.5l-635 -1190h576q28 0 47.5 -19.5t19.5 -47.5t-19.5 -48t-47.5 -20h-688q-40 0 -60 33q-10 16 -10 32.5t10 34.5l635 1188h-575q-29 0 -48.5 20t-19.5 48z" />
<glyph unicode="{" horiz-adv-x="624" d="M-2 725q4 26 24 42.5t46 16.5t53 15q41 23 41 80q0 130 14 231.5t33.5 157t45 94t42.5 50.5t33 18q26 9 51.5 -4.5t34.5 -39.5q7 -24 -3 -47t-32 -34q-6 -4 -13 -13.5t-20.5 -41t-24 -74.5t-18.5 -121.5t-8 -175.5q0 -114 -78 -177q78 -78 78 -188q0 -86 6.5 -155.5 t14.5 -108t19 -67t17 -37t11 -13.5q23 -5 38 -22.5t15 -42.5q0 -28 -19.5 -48t-48.5 -20q-13 0 -28.5 4t-43 26t-47.5 60q-69 123 -69 424q0 35 -14.5 63t-38 43.5t-35 21t-23.5 9.5q-26 6 -41 27t-12 47z" />
<glyph unicode="|" horiz-adv-x="339" d="M0 47v1337q0 28 20 48t48 20t47.5 -20t19.5 -48v-1337q0 -29 -19.5 -48t-47.5 -19t-48 19t-20 48z" />
<glyph unicode="}" horiz-adv-x="624" d="M-2 68q0 25 15 42.5t38 22.5q5 5 11 13.5t17 37t19 67t14.5 108t6.5 155.5q0 110 78 188q-78 63 -78 177q0 97 -8 175.5t-18.5 121.5t-24 74.5t-20.5 41t-13 13.5q-22 11 -32 34t-3 47q9 26 34.5 39.5t51.5 4.5q16 -6 33 -18t42.5 -50.5t45 -94t33.5 -157t14 -231.5 q0 -57 41 -80q27 -15 53 -15t46 -16.5t24 -42.5q3 -26 -12 -47t-41 -27q-12 -4 -23.5 -9.5t-35 -21t-38 -43.5t-14.5 -63q0 -299 -70 -424q-20 -38 -47.5 -60t-42.5 -26t-28 -4q-29 0 -48.5 20t-19.5 48z" />
<glyph unicode="~" horiz-adv-x="669" d="M0 718.5q0 27.5 20 47.5q61 61 130 61q56 0 110 -28q29 -13 51 -13q12 0 33 21q23 20 49 20q27 0 47 -20t20 -48t-20 -48q-60 -60 -129 -60q-14 0 -27 1.5t-21.5 3t-20 5.5t-15 5.5t-14.5 6.5t-12 5q-31 14 -51 14q-20 -6 -35 -22q-19 -19 -47 -19q-30 0 -48 21 q-20 19 -20 46.5z" />
<glyph unicode="&#xa1;" horiz-adv-x="378" d="M0 1331q0 43 29.5 73t72.5 30q41 0 71 -30t30 -73q0 -41 -30 -70.5t-71 -29.5q-43 0 -72.5 29.5t-29.5 70.5zM35 68v940q0 28 19.5 47.5t47.5 19.5t48 -19.5t20 -47.5v-940q0 -29 -20 -48.5t-48 -19.5t-47.5 19.5t-19.5 48.5zM82 1331q0 -8 5.5 -14t14.5 -6q8 0 14.5 6.5 t6.5 13.5q0 9 -6.5 15t-14.5 6q-20 0 -20 -21z" />
<glyph unicode="&#xa2;" horiz-adv-x="1114" d="M0 414v596q0 168 110.5 294.5t274.5 151.5v27q0 28 20 47.5t48 19.5t47.5 -19.5t19.5 -47.5v-27q164 -25 274.5 -151.5t110.5 -294.5q0 -29 -19.5 -48.5t-47.5 -19.5t-48 19.5t-20 48.5q0 113 -71 199.5t-179 109.5v-1215q108 23 179 110t71 200q0 28 20 47.5t48 19.5 t47.5 -19.5t19.5 -47.5q0 -168 -110.5 -295t-274.5 -152v-26q0 -28 -19.5 -48t-47.5 -20t-48 20t-20 48v26q-164 25 -274.5 152t-110.5 295zM135 414q0 -113 71 -200t179 -110v1215q-108 -23 -179 -109.5t-71 -199.5v-596z" />
<glyph unicode="&#xa3;" horiz-adv-x="1116" d="M-82 676q0 28 20 47.5t48 19.5l-27 273v6q0 92 36 176t96.5 144.5t144.5 96.5t176 36q187 0 319.5 -132.5t132.5 -320.5q0 -29 -19 -48.5t-48 -19.5q-28 0 -48 19.5t-20 48.5q0 131 -92.5 224t-224.5 93q-130 0 -223 -92t-95 -223l27 -281h311q28 0 48 -19t20 -48 q0 -28 -20 -48t-48 -20h-299l37 -397q27 6 59 6q74 0 246 -47q133 -35 160 -35q37 0 85 23.5t79 46.5q22 15 49.5 11t44.5 -26q17 -23 13 -51t-27 -43q-14 -11 -43.5 -30t-89.5 -42.5t-111 -23.5q-19 0 -44.5 4t-43 8t-55.5 14t-52 13q-155 43 -211 43q-25 0 -50 -6.5 t-43 -15.5t-32 -18t-22 -16l-8 -6h2l-27 -20q-25 -15 -52 -8.5t-42 31.5q-27 49 25 94q22 22 59 45l-41 446h-12q-28 0 -48 20t-20 48z" />
<glyph unicode="&#xa5;" horiz-adv-x="911" d="M-77.5 1388.5q9.5 26.5 34.5 38.5q26 12 52 3t38 -35l264 -559l262 559q12 26 38.5 35t52.5 -3q25 -12 34.5 -38.5t-2.5 -51.5l-317 -675v-39h115q28 0 47.5 -20t19.5 -48t-19.5 -48t-47.5 -20h-115v-84h115q28 0 47.5 -19.5t19.5 -47.5t-19.5 -48t-47.5 -20h-115v-200 q0 -28 -20 -48t-48 -20q-29 0 -48 20t-19 48v200h-117q-28 0 -48 20t-20 48t20 47.5t48 19.5h117v84h-117q-28 0 -48 20t-20 48t20 48t48 20h117v39l-320 675q-11 25 -1.5 51.5z" />
<glyph unicode="&#xa9;" horiz-adv-x="1220" d="M0 707q0 138 68.5 255.5t186 186t255.5 68.5q139 0 257 -68.5t186.5 -186t68.5 -255.5q0 -212 -150 -362t-362 -150q-138 0 -255.5 68.5t-186 186.5t-68.5 257zM135 707q0 -155 110 -266t265 -111t266 111t111 266t-110.5 264.5t-266.5 109.5q-155 0 -265 -109.5 t-110 -264.5zM238 709q0 129 91 220t220 91q28 0 47.5 -20t19.5 -48t-19.5 -47.5t-47.5 -19.5q-73 0 -124.5 -51.5t-51.5 -124.5q0 -72 51.5 -124.5t124.5 -52.5q28 0 47.5 -19t19.5 -48q0 -28 -19.5 -48t-47.5 -20q-129 0 -220 92t-91 220z" />
<glyph unicode="&#xad;" horiz-adv-x="911" d="M0 674q0 29 20 48t48 19h567q29 0 48 -19t19 -48q0 -28 -19 -48t-48 -20h-567q-28 0 -48 20t-20 48z" />
<glyph unicode="&#xae;" horiz-adv-x="1220" d="M0 707q0 138 68.5 255.5t186 186t255.5 68.5t255.5 -68.5t186 -186t68.5 -255.5q0 -139 -68.5 -257t-186 -186.5t-255.5 -68.5t-255.5 68.5t-186 186.5t-68.5 257zM135 707q0 -155 110 -266t265 -111t265 111t110 266t-110 264.5t-265 109.5t-265 -109.5t-110 -264.5z M358 510v391q0 23 16 38t38 15h80q70 0 120 -49.5t50 -118.5q0 -95 -82 -147l67 -98q12 -19 8.5 -41t-22.5 -35q-13 -8 -31 -8q-29 0 -45 22l-90 131v-100q0 -22 -16 -37.5t-39 -15.5q-22 0 -38 15.5t-16 37.5zM467 719q24 6 25 6q26 0 43.5 17.5t17.5 43.5q0 25 -17.5 42.5 t-43.5 17.5h-25v-127z" />
<glyph unicode="&#xbf;" horiz-adv-x="995" d="M0 391q0 51 11.5 97t27 77.5t42.5 65.5t46 52.5t49 45.5q32 28 47 43q65 65 84 97t19 98q0 28 19.5 47.5t47.5 19.5t48 -19.5t20 -47.5q0 -44 -8 -81t-16.5 -60.5t-32.5 -54.5t-37 -45t-48 -50q-9 -8 -27.5 -24.5t-27.5 -24.5q-63 -55 -96 -106.5t-33 -129.5 q0 -106 76.5 -181t183.5 -75t183.5 75.5t76.5 182.5q0 28 19.5 48t48.5 20q28 0 48 -20t20 -48q0 -162 -116.5 -277.5t-279.5 -115.5q-165 0 -278 113q-117 114 -117 278zM291 1331q0 43 30.5 73t71.5 30t71 -30t30 -73q0 -41 -30 -70.5t-71 -29.5t-71.5 29.5t-30.5 70.5z M373 1331q0 -8 5.5 -14t14.5 -6q8 0 14.5 6.5t6.5 13.5q0 9 -6.5 15t-14.5 6q-20 0 -20 -21z" />
<glyph unicode="&#xc0;" horiz-adv-x="1009" d="M-120 52q-7 27 7 52l729 1295q12 20 33 28.5t43 2.5q23 -4 37 -23t14 -43v-1296q0 -28 -19.5 -48t-47.5 -20t-48 20t-20 48v301h-418l-186 -330q-13 -25 -40 -33t-52 6q-25 13 -32 40zM237 1743.5q8 26.5 33 38.5q26 12 52.5 3.5t39.5 -34.5l80 -162q13 -25 4.5 -51.5 t-34.5 -38.5q-11 -8 -29 -8q-42 0 -61 39l-80 162q-13 25 -5 51.5zM268 504h340v604z" />
<glyph unicode="&#xc1;" horiz-adv-x="1009" d="M-120 52q-7 27 7 52l729 1295q12 20 33 28.5t43 2.5q23 -4 37 -23t14 -43v-1296q0 -28 -19.5 -48t-47.5 -20t-48 20t-20 48v301h-418l-186 -330q-13 -25 -40 -33t-52 6q-25 13 -32 40zM170 1537.5q-8 26.5 4 51.5l80 162q12 26 39 34.5t53 -3.5q25 -12 33.5 -38.5 t-4.5 -51.5l-80 -162q-19 -39 -62 -39q-17 0 -30 8q-25 12 -33 38.5zM268 504h340v604z" />
<glyph unicode="&#xc2;" horiz-adv-x="1009" d="M-120 52q-7 27 7 52l729 1295q12 20 33 28.5t43 2.5q23 -4 37 -23t14 -43v-1296q0 -28 -19.5 -48t-47.5 -20t-48 20t-20 48v301h-418l-186 -330q-13 -25 -40 -33t-52 6q-25 13 -32 40zM125 1537.5q-8 26.5 4 51.5l80 162q12 26 39 34.5t53 -3.5q2 -2 10 -6q1 1 11 6 q25 12 51.5 3.5t38.5 -34.5l82 -162q12 -25 3 -51.5t-34 -38.5q-13 -8 -31 -8q-43 0 -59 39l-62 121l-61 -121q-19 -39 -62 -39q-17 0 -30 8q-25 12 -33 38.5zM268 504h340v604z" />
<glyph unicode="&#xc3;" horiz-adv-x="1009" d="M-120 52q-7 27 7 52l729 1295q12 20 33 28.5t43 2.5q23 -4 37 -23t14 -43v-1296q0 -28 -19.5 -48t-47.5 -20t-48 20t-20 48v301h-418l-186 -330q-13 -25 -40 -33t-52 6q-25 13 -32 40zM79 1635q0 28 19 48q9 9 24 20.5t46 25.5t59 14q16 0 30 -1.5t28 -5.5t20 -6t20 -8 t15 -6q28 -14 51 -14q17 6 33 22q19 19 47 19t49 -21q19 -19 19 -46.5t-19 -47.5q-10 -10 -24.5 -21t-45.5 -25.5t-59 -14.5q-54 0 -112 28q-26 13 -52 13q-6 0 -32 -21q-20 -20 -48 -20q-26 0 -49 20q-19 20 -19 48zM268 504h340v604z" />
<glyph unicode="&#xc4;" horiz-adv-x="1009" d="M-120 52q-7 27 7 52l729 1295q12 20 33 28.5t43 2.5q23 -4 37 -23t14 -43v-1296q0 -28 -19.5 -48t-47.5 -20t-48 20t-20 48v301h-418l-186 -330q-13 -25 -40 -33t-52 6q-25 13 -32 40zM41 1640q0 62 44 106t105 44q74 0 121 -64q50 64 123 64q61 0 104.5 -44t43.5 -106 t-43.5 -105.5t-104.5 -43.5q-74 0 -123 63q-46 -63 -121 -63q-62 0 -105.5 43.5t-43.5 105.5zM176 1640q0 -14 14 -14q15 0 15 14q0 6 -4.5 10.5t-10.5 4.5q-14 0 -14 -15zM268 504h340v604zM420 1640q0 -14 14 -14q12 0 12 14q0 6 -3.5 10.5t-8.5 4.5q-14 0 -14 -15z" />
<glyph unicode="&#xc5;" horiz-adv-x="1009" d="M-120 52q-7 27 7 52l729 1295q12 20 33 28.5t43 2.5q23 -4 37 -23t14 -43v-1296q0 -28 -19.5 -48t-47.5 -20t-48 20t-20 48v301h-418l-186 -330q-13 -25 -40 -33t-52 6q-25 13 -32 40zM164 1640q0 62 44 106t105 44t104.5 -44t43.5 -106t-43.5 -105.5t-104.5 -43.5 t-105 43.5t-44 105.5zM268 504h340v604zM299 1640q0 -14 14 -14q5 0 9 4t4 10t-4 10.5t-9 4.5q-14 0 -14 -15z" />
<glyph unicode="&#xc6;" horiz-adv-x="1617" d="M3 40q-7 27 7 52q672 1197 729 1301q20 34 60 34h547q28 0 47.5 -19.5t19.5 -47.5t-19.5 -48t-47.5 -20h-480v-514h480q28 0 47.5 -19t19.5 -48q0 -28 -19.5 -48t-47.5 -20h-480v-504h480q28 0 47.5 -19.5t19.5 -47.5t-19.5 -48t-47.5 -20h-547q-29 0 -48.5 20t-19.5 48 v284h-418l-186 -331q-18 -35 -59 -35q-16 0 -33 10q-25 13 -32 40zM389 492h342v602z" />
<glyph unicode="&#xc7;" horiz-adv-x="950" d="M-82 717q0 145 57 278t153 229t229 153t278 57q28 0 47.5 -20t19.5 -48t-19.5 -48t-47.5 -20q-158 0 -292 -77.5t-212 -211.5t-78 -292q0 -118 46 -225.5t124 -185.5t186 -124.5t226 -46.5q28 0 47.5 -19t19.5 -48q0 -24 -15 -43t-38 -23q13 -26 13 -55q0 -54 -38 -91.5 t-92 -37.5q-28 0 -47.5 19.5t-19.5 47.5q0 20 11 37t28 25q-39 17 -39 61v12q-237 58 -392 252.5t-155 444.5z" />
<glyph unicode="&#xc8;" horiz-adv-x="888" d="M0 72v1288q0 28 19.5 47.5t48.5 19.5h546q28 0 48 -19.5t20 -47.5t-20 -48t-48 -20h-479v-508h479q28 0 48 -19.5t20 -47.5q0 -29 -20 -48.5t-48 -19.5h-479v-510h479q28 0 48 -19.5t20 -47.5t-20 -48t-48 -20h-546q-29 0 -48.5 20t-19.5 48zM235 1743.5q8 26.5 33 38.5 q26 12 52.5 3.5t39.5 -34.5l80 -162q13 -25 4.5 -51.5t-34.5 -38.5q-11 -8 -29 -8q-43 0 -62 39l-79 162q-13 25 -5 51.5z" />
<glyph unicode="&#xc9;" horiz-adv-x="888" d="M0 72v1288q0 28 19.5 47.5t48.5 19.5h546q28 0 48 -19.5t20 -47.5t-20 -48t-48 -20h-479v-508h479q28 0 48 -19.5t20 -47.5q0 -29 -20 -48.5t-48 -19.5h-479v-510h479q28 0 48 -19.5t20 -47.5t-20 -48t-48 -20h-546q-29 0 -48.5 20t-19.5 48zM254 1537.5q-8 26.5 4 51.5 l80 162q12 26 39 34.5t53 -3.5q25 -12 33.5 -38.5t-4.5 -51.5l-80 -162q-19 -39 -62 -39q-17 0 -30 8q-25 12 -33 38.5z" />
<glyph unicode="&#xca;" horiz-adv-x="888" d="M0 72v1288q0 28 19.5 47.5t48.5 19.5h546q28 0 48 -19.5t20 -47.5t-20 -48t-48 -20h-479v-508h479q28 0 48 -19.5t20 -47.5q0 -29 -20 -48.5t-48 -19.5h-479v-510h479q28 0 48 -19.5t20 -47.5t-20 -48t-48 -20h-546q-29 0 -48.5 20t-19.5 48zM146 1537.5q-8 26.5 4 51.5 l79 162q12 26 39.5 34.5t53.5 -3.5q2 -2 10 -6q2 2 10 6q25 12 51.5 3.5t38.5 -34.5l82 -162q12 -25 3 -51.5t-34 -38.5q-13 -8 -30 -8q-44 0 -60 39l-61 121l-62 -121q-19 -39 -61 -39q-18 0 -31 8q-24 12 -32 38.5z" />
<glyph unicode="&#xcb;" horiz-adv-x="888" d="M0 72v1288q0 28 19.5 47.5t48.5 19.5h546q28 0 48 -19.5t20 -47.5t-20 -48t-48 -20h-479v-508h479q28 0 48 -19.5t20 -47.5q0 -29 -20 -48.5t-48 -19.5h-479v-510h479q28 0 48 -19.5t20 -47.5t-20 -48t-48 -20h-546q-29 0 -48.5 20t-19.5 48zM57 1640q0 62 44.5 106 t105.5 44q74 0 121 -64q50 64 123 64q61 0 104 -44t43 -106t-43 -105.5t-104 -43.5q-74 0 -123 63q-46 -63 -121 -63q-62 0 -106 44t-44 105zM193 1640q0 -14 14 -14t14 14q0 15 -14 15t-14 -15zM436 1640q0 -14 15 -14q12 0 12 14q0 6 -3.5 10.5t-8.5 4.5q-6 0 -10.5 -4.5 t-4.5 -10.5z" />
<glyph unicode="&#xcc;" horiz-adv-x="339" d="M-66 1743.5q8 26.5 33 38.5q26 12 52.5 3.5t39.5 -34.5l80 -162q13 -25 4.5 -51.5t-34.5 -38.5q-11 -8 -29 -8q-43 0 -62 39l-79 162q-13 25 -5 51.5zM-35 68v1296q0 28 20 48t48 20t47.5 -20t19.5 -48v-1296q0 -29 -19.5 -48.5t-47.5 -19.5t-48 19.5t-20 48.5z" />
<glyph unicode="&#xcd;" horiz-adv-x="339" d="M-69.5 1537.5q-8.5 26.5 3.5 51.5l80 162q13 26 39.5 34.5t52.5 -3.5q25 -12 33.5 -38.5t-4.5 -51.5l-80 -162q-19 -39 -61 -39q-18 0 -29 8q-26 12 -34.5 38.5zM-37 68q0 -29 20 -48.5t48 -19.5t47.5 19.5t19.5 48.5v1296q0 28 -19.5 48t-47.5 20t-48 -20t-20 -48v-1296 z" />
<glyph unicode="&#xce;" horiz-adv-x="339" d="M-237 1537.5q-8 26.5 4 51.5l79 162q12 26 39.5 34.5t53.5 -3.5q2 -2 10 -6q2 2 10 6q25 12 51.5 3.5t38.5 -34.5l82 -162q12 -25 3 -51.5t-34 -38.5q-13 -8 -30 -8q-44 0 -60 39l-61 121l-62 -121q-19 -39 -61 -39q-18 0 -31 8q-24 12 -32 38.5zM-121 68q0 -29 20 -48.5 t48 -19.5t47.5 19.5t19.5 48.5v1296q0 28 -19.5 48t-47.5 20t-48 -20t-20 -48v-1296z" />
<glyph unicode="&#xcf;" horiz-adv-x="339" d="M-397 1640q0 62 44 106t105 44q74 0 121 -64q50 64 123 64q61 0 104 -44t43 -106t-43 -105.5t-104 -43.5q-74 0 -123 63q-46 -63 -121 -63q-62 0 -105.5 43.5t-43.5 105.5zM-262 1640q0 -14 14 -14q15 0 15 14q0 6 -4.5 10.5t-10.5 4.5q-14 0 -14 -15zM-199 68 q0 -29 20 -48.5t48 -19.5t48 19.5t20 48.5v1296q0 28 -20 48t-48 20t-48 -20t-20 -48v-1296zM-18 1640q0 -14 14 -14q12 0 12 14q0 6 -3.5 10.5t-8.5 4.5q-14 0 -14 -15z" />
<glyph unicode="&#xd0;" horiz-adv-x="950" d="M-242 758q0 28 19.5 47.5t48.5 19.5h53v541q0 28 20 48t48 20q145 0 278 -57t229 -153t153 -229t57 -278t-57 -278t-153 -229t-229 -153t-278 -57q-28 0 -48 20t-20 48v622h-53q-29 0 -48.5 20t-19.5 48zM14 139q143 17 260.5 98t185.5 207.5t68 272.5t-68 273 t-185.5 207.5t-260.5 96.5v-469h136q28 0 47.5 -19.5t19.5 -47.5t-19.5 -48t-47.5 -20h-136v-551z" />
<glyph unicode="&#xd1;" horiz-adv-x="989" d="M0 68q0 -29 20 -48.5t48 -19.5t47.5 19.5t19.5 48.5v1009l520 -1040q18 -37 62 -37h14q23 6 38 24.5t15 43.5v1296q0 28 -19.5 48t-47.5 20q-29 0 -48.5 -20t-19.5 -48v-1012l-522 1043q-9 21 -30.5 31t-45.5 4q-23 -4 -37 -23t-14 -43v-1296zM141 1635q0 28 19 48 q9 9 24 20.5t46 25.5t59 14q16 0 30 -1.5t27.5 -5.5t20 -6t19.5 -7.5t15 -6.5q28 -14 52 -14q15 5 32 22q19 19 47 19q29 0 50 -21q19 -19 19 -46.5t-19 -47.5q-10 -10 -24.5 -21t-45.5 -25.5t-59 -14.5q-55 0 -113 28q-26 13 -51 13q-7 0 -33 -21q-20 -20 -47 -20 q-26 0 -49 20q-19 20 -19 48z" />
<glyph unicode="&#xd2;" d="M0 418v588q0 187 132.5 319.5t320.5 132.5q187 0 319.5 -132t132.5 -320v-588q0 -188 -132.5 -320.5t-319.5 -132.5t-320 132.5t-133 320.5zM135 418q0 -131 93 -224.5t225 -93.5t224.5 93.5t92.5 224.5v588q0 132 -92.5 224.5t-224.5 92.5t-225 -92.5t-93 -224.5v-588z M394.5 1743.5q8.5 26.5 33.5 38.5q26 12 52.5 3.5t39.5 -34.5l80 -162q12 -25 3.5 -51.5t-34.5 -38.5q-11 -8 -28 -8q-43 0 -62 39l-80 162q-13 25 -4.5 51.5z" />
<glyph unicode="&#xd3;" d="M0 418v588q0 187 132.5 319.5t320.5 132.5q187 0 319.5 -132t132.5 -320v-588q0 -188 -132.5 -320.5t-319.5 -132.5t-320 132.5t-133 320.5zM135 418q0 -131 93 -224.5t225 -93.5t224.5 93.5t92.5 224.5v588q0 132 -92.5 224.5t-224.5 92.5t-225 -92.5t-93 -224.5v-588z M309 1537.5q-8 26.5 4 51.5l80 162q12 26 39 34.5t53 -3.5q25 -12 33.5 -38.5t-4.5 -51.5l-80 -162q-19 -39 -61 -39q-18 0 -31 8q-25 12 -33 38.5z" />
<glyph unicode="&#xd4;" d="M0 418q0 -188 133 -320.5t320 -132.5t319.5 132.5t132.5 320.5v588q0 188 -132.5 320t-319.5 132q-188 0 -320.5 -132.5t-132.5 -319.5v-588zM135 418v588q0 132 93 224.5t225 92.5t224.5 -92.5t92.5 -224.5v-588q0 -131 -92.5 -224.5t-224.5 -93.5t-225 93.5t-93 224.5z M264 1537.5q-8 26.5 4 51.5l80 162q12 26 39 34.5t53 -3.5q1 -1 11 -6q2 2 10 6q25 12 51.5 3.5t38.5 -34.5l82 -162q12 -25 3 -51.5t-34 -38.5q-13 -8 -31 -8q-43 0 -59 39l-61 121l-62 -121q-19 -39 -61 -39q-18 0 -31 8q-25 12 -33 38.5z" />
<glyph unicode="&#xd5;" d="M0 418q0 -188 133 -320.5t320 -132.5t319.5 132.5t132.5 320.5v588q0 188 -132.5 320t-319.5 132q-188 0 -320.5 -132.5t-132.5 -319.5v-588zM135 418v588q0 132 93 224.5t225 92.5t224.5 -92.5t92.5 -224.5v-588q0 -131 -92.5 -224.5t-224.5 -93.5t-225 93.5t-93 224.5z M227 1635q0 28 19 48q9 9 24 20.5t46 25.5t59 14q16 0 30 -1.5t27.5 -5.5t20 -6t19.5 -7.5t15 -6.5q28 -14 52 -14q15 5 32 22q19 19 47 19q29 0 50 -21q19 -19 19 -46.5t-19 -47.5q-10 -10 -24.5 -21t-45.5 -25.5t-59 -14.5q-55 0 -113 28q-26 13 -51 13q-7 0 -33 -21 q-20 -20 -47 -20q-26 0 -49 20q-19 20 -19 48z" />
<glyph unicode="&#xd6;" d="M0 418q0 -188 133 -320.5t320 -132.5t319.5 132.5t132.5 320.5v588q0 188 -132.5 320t-319.5 132q-188 0 -320.5 -132.5t-132.5 -319.5v-588zM135 418v588q0 132 93 224.5t225 92.5t224.5 -92.5t92.5 -224.5v-588q0 -131 -92.5 -224.5t-224.5 -93.5t-225 93.5t-93 224.5z M180 1640q0 62 44 106t106 44q74 0 121 -64q50 64 122 64q61 0 104.5 -44t43.5 -106t-43.5 -105.5t-104.5 -43.5q-73 0 -122 63q-46 -63 -121 -63q-62 0 -106 44t-44 105zM315 1640q0 -14 15 -14q14 0 14 14q0 15 -14 15q-6 0 -10.5 -4.5t-4.5 -10.5zM559 1640q0 -14 14 -14 q5 0 9 4t4 10t-4 10.5t-9 4.5q-14 0 -14 -15z" />
<glyph unicode="&#xd8;" horiz-adv-x="1116" d="M0 418v588q0 187 133.5 319.5t321.5 132.5q148 0 266 -88l16 31q13 26 40 34.5t52 -5.5q25 -12 33 -39.5t-4 -53.5l-37 -67q86 -120 86 -264v-588q0 -187 -133 -320t-319 -133q-154 0 -277 92l-10 -16q-19 -37 -59 -37q-11 0 -31 8q-25 13 -33 40t4 52l31 58 q-80 121 -80 256zM135 418q0 -52 21 -113l501 944q-90 74 -202 74q-132 0 -226 -93t-94 -224v-588zM242 180q89 -80 213 -80q131 0 224 93t93 225v588q0 60 -27 122z" />
<glyph unicode="&#xd9;" d="M0 418v948q0 28 20 48t48 20t47.5 -20t19.5 -48v-948q0 -132 93 -225t225 -93t224.5 93t92.5 225v948q0 28 20 48t48 20t47.5 -20t19.5 -48v-948q0 -188 -132.5 -320.5t-319.5 -132.5t-320 132.5t-133 320.5zM368 1743.5q8 26.5 33 38.5q26 12 53 3.5t40 -34.5l79 -162 q13 -25 4.5 -51.5t-34.5 -38.5q-11 -8 -29 -8q-42 0 -61 39l-80 162q-13 25 -5 51.5z" />
<glyph unicode="&#xda;" d="M0 418v948q0 28 20 48t48 20t47.5 -20t19.5 -48v-948q0 -132 93 -225t225 -93t224.5 93t92.5 225v948q0 28 20 48t48 20t47.5 -20t19.5 -48v-948q0 -188 -132.5 -320.5t-319.5 -132.5t-320 132.5t-133 320.5zM342 1537.5q-8 26.5 4 51.5l80 162q12 26 39 34.5t53 -3.5 q25 -12 33.5 -38.5t-4.5 -51.5l-80 -162q-19 -39 -61 -39q-18 0 -31 8q-25 12 -33 38.5z" />
<glyph unicode="&#xdb;" d="M0 418q0 -188 133 -320.5t320 -132.5t319.5 132.5t132.5 320.5v948q0 28 -19.5 48t-47.5 20t-48 -20t-20 -48v-948q0 -132 -92.5 -225t-224.5 -93t-225 93t-93 225v948q0 28 -19.5 48t-47.5 20t-48 -20t-20 -48v-948zM277 1537.5q-8 26.5 4 51.5l79 162q12 26 39.5 34.5 t53.5 -3.5q2 -2 10 -6q2 2 10 6q25 12 51.5 3.5t38.5 -34.5l82 -162q12 -25 3 -51.5t-34 -38.5q-13 -8 -30 -8q-44 0 -60 39l-61 121l-62 -121q-19 -39 -61 -39q-18 0 -31 8q-24 12 -32 38.5z" />
<glyph unicode="&#xdc;" d="M0 418q0 -188 133 -320.5t320 -132.5t319.5 132.5t132.5 320.5v948q0 28 -19.5 48t-47.5 20t-48 -20t-20 -48v-948q0 -132 -92.5 -225t-224.5 -93t-225 93t-93 225v948q0 28 -19.5 48t-47.5 20t-48 -20t-20 -48v-948zM180 1640q0 62 44 106t106 44q74 0 121 -64 q50 64 122 64q61 0 104.5 -44t43.5 -106t-43.5 -105.5t-104.5 -43.5q-73 0 -122 63q-46 -63 -121 -63q-62 0 -106 44t-44 105zM315 1640q0 -14 15 -14q14 0 14 14q0 15 -14 15q-6 0 -10.5 -4.5t-4.5 -10.5zM559 1640q0 -14 14 -14q5 0 9 4t4 10t-4 10.5t-9 4.5 q-14 0 -14 -15z" />
<glyph unicode="&#xdd;" horiz-adv-x="911" d="M-77 1388q9 27 34 37q26 12 53 3t37 -35l264 -559l262 559q12 26 39 35t52 -3q26 -10 35 -37t-3 -53l-317 -676v-591q0 -28 -20 -48t-48 -20t-47.5 20t-19.5 48v591l-318 676q-12 26 -3 53zM203 1537.5q-8 26.5 4 51.5l80 162q12 26 39 34.5t53 -3.5q25 -12 33.5 -38.5 t-4.5 -51.5l-80 -162q-19 -39 -62 -39q-17 0 -30 8q-25 12 -33 38.5z" />
<glyph unicode="&#xde;" horiz-adv-x="788" d="M0 68v1298q0 28 19.5 48t48.5 20q28 0 47.5 -20t19.5 -48v-256h53q163 0 277.5 -115t114.5 -278q0 -161 -115 -276t-277 -115h-53v-258q0 -28 -19.5 -48t-47.5 -20q-29 0 -48.5 20t-19.5 48zM135 461h53q106 0 181 75t75 181t-75 182t-181 76h-53v-514z" />
<glyph unicode="&#xdf;" horiz-adv-x="993" d="M0 -221v1581q0 28 20 47.5t48 19.5h325q162 0 277 -112q114 -114 114 -279q0 -99 -46 -184.5t-126 -140.5q79 -53 125.5 -138.5t46.5 -185.5q0 -162 -114 -276q-114 -111 -277 -111q-28 0 -47.5 19.5t-19.5 48.5q0 28 19.5 47.5t47.5 19.5q107 0 181.5 73t74.5 179 t-75 181t-181 75q-28 0 -47.5 20t-19.5 48t19.5 47.5t47.5 19.5q106 0 181 75.5t75 182.5q0 106 -74.5 181t-181.5 75h-258v-1513q0 -28 -19 -48t-48 -20q-28 0 -48 20t-20 48z" />
<glyph unicode="&#xe0;" horiz-adv-x="948" d="M-119 86q363 1290 365 1296l4 8q3 7 8 13.5t12 14t18.5 12t24.5 4.5q47 0 64 -52l364 -1296q8 -28 -5.5 -52.5t-41.5 -31.5q-6 -2 -18 -2q-22 0 -40 13t-24 36l-90 316h-422l-88 -316q-6 -23 -23.5 -36t-41.5 -13q-13 0 -19 2q-27 8 -40.5 32.5t-6.5 51.5zM139 500h346 l-174 616zM237 1743.5q8 26.5 33 38.5q26 12 52.5 3.5t39.5 -34.5l80 -162q13 -25 4.5 -51.5t-34.5 -38.5q-11 -8 -29 -8q-42 0 -61 39l-80 162q-13 25 -5 51.5z" />
<glyph unicode="&#xe1;" horiz-adv-x="948" d="M-119 86q363 1290 365 1296l4 8q3 7 8 13.5t12 14t18.5 12t24.5 4.5q47 0 64 -52l364 -1296q8 -28 -5.5 -52.5t-41.5 -31.5q-6 -2 -18 -2q-22 0 -40 13t-24 36l-90 316h-422l-88 -316q-6 -23 -23.5 -36t-41.5 -13q-13 0 -19 2q-27 8 -40.5 32.5t-6.5 51.5zM139 500h346 l-174 616zM170 1537.5q-8 26.5 4 51.5l80 162q12 26 39 34.5t53 -3.5q25 -12 33.5 -38.5t-4.5 -51.5l-80 -162q-19 -39 -62 -39q-17 0 -30 8q-25 12 -33 38.5z" />
<glyph unicode="&#xe2;" horiz-adv-x="948" d="M-119 86q363 1290 365 1296l4 8q3 7 8 13.5t12 14t18.5 12t24.5 4.5q47 0 64 -52l364 -1296q8 -28 -5.5 -52.5t-41.5 -31.5q-6 -2 -18 -2q-22 0 -40 13t-24 36l-90 316h-422l-88 -316q-6 -23 -23.5 -36t-41.5 -13q-13 0 -19 2q-27 8 -40.5 32.5t-6.5 51.5zM125 1537.5 q-8 26.5 4 51.5l80 162q12 26 39 34.5t53 -3.5q2 -2 10 -6q1 1 11 6q25 12 51.5 3.5t38.5 -34.5l82 -162q12 -25 3 -51.5t-34 -38.5q-13 -8 -31 -8q-43 0 -59 39l-62 121l-61 -121q-19 -39 -62 -39q-17 0 -30 8q-25 12 -33 38.5zM139 500h346l-174 616z" />
<glyph unicode="&#xe3;" horiz-adv-x="948" d="M-119 86q363 1290 365 1296l4 8q3 7 8 13.5t12 14t18.5 12t24.5 4.5q47 0 64 -52l364 -1296q8 -28 -5.5 -52.5t-41.5 -31.5q-6 -2 -18 -2q-22 0 -40 13t-24 36l-90 316h-422l-88 -316q-6 -23 -23.5 -36t-41.5 -13q-13 0 -19 2q-27 8 -40.5 32.5t-6.5 51.5zM79 1635 q0 28 19 48q9 9 24 20.5t46 25.5t59 14q16 0 30 -1.5t28 -5.5t20 -6t20 -8t15 -6q28 -14 51 -14q17 6 33 22q19 19 47 19t49 -21q19 -19 19 -46.5t-19 -47.5q-10 -10 -24.5 -21t-45.5 -25.5t-59 -14.5q-54 0 -112 28q-26 13 -52 13q-6 0 -32 -21q-20 -20 -48 -20 q-26 0 -49 20q-19 20 -19 48zM139 500h346l-174 616z" />
<glyph unicode="&#xe4;" horiz-adv-x="948" d="M-119 86q363 1290 365 1296l4 8q3 7 8 13.5t12 14t18.5 12t24.5 4.5q47 0 64 -52l364 -1296q8 -28 -5.5 -52.5t-41.5 -31.5q-6 -2 -18 -2q-22 0 -40 13t-24 36l-90 316h-422l-88 -316q-6 -23 -23.5 -36t-41.5 -13q-13 0 -19 2q-27 8 -40.5 32.5t-6.5 51.5zM41 1640 q0 62 44 106t105 44q74 0 121 -64q50 64 123 64q61 0 104.5 -44t43.5 -106t-43.5 -105.5t-104.5 -43.5q-74 0 -123 63q-46 -63 -121 -63q-62 0 -105.5 43.5t-43.5 105.5zM139 500h346l-174 616zM176 1640q0 -14 14 -14q15 0 15 14q0 6 -4.5 10.5t-10.5 4.5q-14 0 -14 -15z M420 1640q0 -14 14 -14q12 0 12 14q0 6 -3.5 10.5t-8.5 4.5q-14 0 -14 -15z" />
<glyph unicode="&#xe5;" horiz-adv-x="948" d="M-119 86q363 1290 365 1296l4 8q3 7 8 13.5t12 14t18.5 12t24.5 4.5q47 0 64 -52l364 -1296q8 -28 -5.5 -52.5t-41.5 -31.5q-6 -2 -18 -2q-22 0 -40 13t-24 36l-90 316h-422l-88 -316q-6 -23 -23.5 -36t-41.5 -13q-13 0 -19 2q-27 8 -40.5 32.5t-6.5 51.5zM139 500h346 l-174 616zM164 1640q0 62 44 106t105 44t104.5 -44t43.5 -106t-43.5 -105.5t-104.5 -43.5t-105 43.5t-44 105.5zM299 1640q0 -14 14 -14q5 0 9 4t4 10t-4 10.5t-9 4.5q-14 0 -14 -15z" />
<glyph unicode="&#xe6;" horiz-adv-x="1617" d="M3 40q-7 27 7 52q672 1197 729 1301q20 34 60 34h547q28 0 47.5 -19.5t19.5 -47.5t-19.5 -48t-47.5 -20h-480v-514h480q28 0 47.5 -19t19.5 -48q0 -28 -19.5 -48t-47.5 -20h-480v-504h480q28 0 47.5 -19.5t19.5 -47.5t-19.5 -48t-47.5 -20h-547q-29 0 -48.5 20t-19.5 48 v284h-418l-186 -331q-18 -35 -59 -35q-16 0 -33 10q-25 13 -32 40zM389 492h342v602z" />
<glyph unicode="&#xe7;" d="M0 414v594q0 187 132.5 319.5t320.5 132.5q187 0 319.5 -132t132.5 -320q0 -28 -19.5 -48t-47.5 -20t-48 20t-20 48q0 132 -93 224.5t-224 92.5q-132 0 -225 -92.5t-93 -224.5v-594q0 -132 93 -225t225 -93q131 0 224 93t93 225q0 28 20 47.5t48 19.5t47.5 -19.5 t19.5 -47.5q0 -160 -100 -283.5t-252 -159.5q27 -34 27 -77q0 -54 -37 -92t-90 -38q-29 0 -48.5 20t-19.5 48q0 43 37 62q-37 16 -37 59v12q-165 25 -275 152.5t-110 296.5z" />
<glyph unicode="&#xe8;" horiz-adv-x="888" d="M0 72v1288q0 28 19.5 47.5t48.5 19.5h546q28 0 48 -19.5t20 -47.5t-20 -48t-48 -20h-479v-508h479q28 0 48 -19.5t20 -47.5q0 -29 -20 -48.5t-48 -19.5h-479v-510h479q28 0 48 -19.5t20 -47.5t-20 -48t-48 -20h-546q-29 0 -48.5 20t-19.5 48zM235 1743.5q8 26.5 33 38.5 q26 12 52.5 3.5t39.5 -34.5l80 -162q13 -25 4.5 -51.5t-34.5 -38.5q-11 -8 -29 -8q-43 0 -62 39l-79 162q-13 25 -5 51.5z" />
<glyph unicode="&#xe9;" horiz-adv-x="888" d="M0 72v1288q0 28 19.5 47.5t48.5 19.5h546q28 0 48 -19.5t20 -47.5t-20 -48t-48 -20h-479v-508h479q28 0 48 -19.5t20 -47.5q0 -29 -20 -48.5t-48 -19.5h-479v-510h479q28 0 48 -19.5t20 -47.5t-20 -48t-48 -20h-546q-29 0 -48.5 20t-19.5 48zM254 1537.5q-8 26.5 4 51.5 l80 162q12 26 39 34.5t53 -3.5q25 -12 33.5 -38.5t-4.5 -51.5l-80 -162q-19 -39 -62 -39q-17 0 -30 8q-25 12 -33 38.5z" />
<glyph unicode="&#xea;" horiz-adv-x="888" d="M0 72v1288q0 28 19.5 47.5t48.5 19.5h546q28 0 48 -19.5t20 -47.5t-20 -48t-48 -20h-479v-508h479q28 0 48 -19.5t20 -47.5q0 -29 -20 -48.5t-48 -19.5h-479v-510h479q28 0 48 -19.5t20 -47.5t-20 -48t-48 -20h-546q-29 0 -48.5 20t-19.5 48zM146 1537.5q-8 26.5 4 51.5 l79 162q12 26 39.5 34.5t53.5 -3.5q2 -2 10 -6q2 2 10 6q25 12 51.5 3.5t38.5 -34.5l82 -162q12 -25 3 -51.5t-34 -38.5q-13 -8 -30 -8q-44 0 -60 39l-61 121l-62 -121q-19 -39 -61 -39q-18 0 -31 8q-24 12 -32 38.5z" />
<glyph unicode="&#xeb;" horiz-adv-x="888" d="M0 72v1288q0 28 19.5 47.5t48.5 19.5h546q28 0 48 -19.5t20 -47.5t-20 -48t-48 -20h-479v-508h479q28 0 48 -19.5t20 -47.5q0 -29 -20 -48.5t-48 -19.5h-479v-510h479q28 0 48 -19.5t20 -47.5t-20 -48t-48 -20h-546q-29 0 -48.5 20t-19.5 48zM57 1640q0 62 44.5 106 t105.5 44q74 0 121 -64q50 64 123 64q61 0 104 -44t43 -106t-43 -105.5t-104 -43.5q-74 0 -123 63q-46 -63 -121 -63q-62 0 -106 44t-44 105zM193 1640q0 -14 14 -14t14 14q0 15 -14 15t-14 -15zM436 1640q0 -14 15 -14q12 0 12 14q0 6 -3.5 10.5t-8.5 4.5q-6 0 -10.5 -4.5 t-4.5 -10.5z" />
<glyph unicode="&#xec;" horiz-adv-x="339" d="M-66 1743.5q8 26.5 33 38.5q26 12 52.5 3.5t39.5 -34.5l80 -162q13 -25 4.5 -51.5t-34.5 -38.5q-11 -8 -29 -8q-43 0 -62 39l-79 162q-13 25 -5 51.5zM-35 68v1296q0 28 20 48t48 20t47.5 -20t19.5 -48v-1296q0 -29 -19.5 -48.5t-47.5 -19.5t-48 19.5t-20 48.5z" />
<glyph unicode="&#xed;" horiz-adv-x="339" d="M-69.5 1537.5q-8.5 26.5 3.5 51.5l80 162q13 26 39.5 34.5t52.5 -3.5q25 -12 33.5 -38.5t-4.5 -51.5l-80 -162q-19 -39 -61 -39q-18 0 -29 8q-26 12 -34.5 38.5zM-37 68q0 -29 20 -48.5t48 -19.5t47.5 19.5t19.5 48.5v1296q0 28 -19.5 48t-47.5 20t-48 -20t-20 -48v-1296 z" />
<glyph unicode="&#xee;" horiz-adv-x="339" d="M-237 1537.5q-8 26.5 4 51.5l79 162q12 26 39.5 34.5t53.5 -3.5q2 -2 10 -6q2 2 10 6q25 12 51.5 3.5t38.5 -34.5l82 -162q12 -25 3 -51.5t-34 -38.5q-13 -8 -30 -8q-44 0 -60 39l-61 121l-62 -121q-19 -39 -61 -39q-18 0 -31 8q-24 12 -32 38.5zM-121 68q0 -29 20 -48.5 t48 -19.5t47.5 19.5t19.5 48.5v1296q0 28 -19.5 48t-47.5 20t-48 -20t-20 -48v-1296z" />
<glyph unicode="&#xef;" horiz-adv-x="339" d="M-397 1640q0 62 44 106t105 44q74 0 121 -64q50 64 123 64q61 0 104 -44t43 -106t-43 -105.5t-104 -43.5q-74 0 -123 63q-46 -63 -121 -63q-62 0 -105.5 43.5t-43.5 105.5zM-262 1640q0 -14 14 -14q15 0 15 14q0 6 -4.5 10.5t-10.5 4.5q-14 0 -14 -15zM-199 68 q0 -29 20 -48.5t48 -19.5t48 19.5t20 48.5v1296q0 28 -20 48t-48 20t-48 -20t-20 -48v-1296zM-18 1640q0 -14 14 -14q12 0 12 14q0 6 -3.5 10.5t-8.5 4.5q-14 0 -14 -15z" />
<glyph unicode="&#xf0;" horiz-adv-x="1075" d="M-242 756q0 29 20 48t48 19h53v537q0 28 20 47.5t48 19.5h325q196 0 334 -135q139 -136 139 -334v-485q0 -195 -139 -334q-141 -135 -334 -135h-8h-6h-311q-28 0 -48 20t-20 48v616h-53q-28 0 -48 20t-20 48zM14 139h244h6h8q140 0 239 98t99 236v485q0 138 -99 236 t-239 98h-258v-469h136q29 0 48 -19t19 -48q0 -28 -19 -48t-48 -20h-136v-549z" />
<glyph unicode="&#xf1;" horiz-adv-x="989" d="M0 68q0 -29 20 -48.5t48 -19.5t47.5 19.5t19.5 48.5v1009l520 -1040q18 -37 62 -37h14q23 6 38 24.5t15 43.5v1296q0 28 -19.5 48t-47.5 20q-29 0 -48.5 -20t-19.5 -48v-1012l-522 1043q-9 21 -30.5 31t-45.5 4q-23 -4 -37 -23t-14 -43v-1296zM141 1635q0 28 19 48 q9 9 24 20.5t46 25.5t59 14q16 0 30 -1.5t27.5 -5.5t20 -6t19.5 -7.5t15 -6.5q28 -14 52 -14q15 5 32 22q19 19 47 19q29 0 50 -21q19 -19 19 -46.5t-19 -47.5q-10 -10 -24.5 -21t-45.5 -25.5t-59 -14.5q-55 0 -113 28q-26 13 -51 13q-7 0 -33 -21q-20 -20 -47 -20 q-26 0 -49 20q-19 20 -19 48z" />
<glyph unicode="&#xf2;" d="M0 418v588q0 187 132.5 319.5t320.5 132.5q187 0 319.5 -132t132.5 -320v-588q0 -188 -132.5 -320.5t-319.5 -132.5t-320 132.5t-133 320.5zM135 418q0 -131 93 -224.5t225 -93.5t224.5 93.5t92.5 224.5v588q0 132 -92.5 224.5t-224.5 92.5t-225 -92.5t-93 -224.5v-588z M394.5 1743.5q8.5 26.5 33.5 38.5q26 12 52.5 3.5t39.5 -34.5l80 -162q12 -25 3.5 -51.5t-34.5 -38.5q-11 -8 -28 -8q-43 0 -62 39l-80 162q-13 25 -4.5 51.5z" />
<glyph unicode="&#xf3;" d="M0 418v588q0 187 132.5 319.5t320.5 132.5q187 0 319.5 -132t132.5 -320v-588q0 -188 -132.5 -320.5t-319.5 -132.5t-320 132.5t-133 320.5zM135 418q0 -131 93 -224.5t225 -93.5t224.5 93.5t92.5 224.5v588q0 132 -92.5 224.5t-224.5 92.5t-225 -92.5t-93 -224.5v-588z M309 1537.5q-8 26.5 4 51.5l80 162q12 26 39 34.5t53 -3.5q25 -12 33.5 -38.5t-4.5 -51.5l-80 -162q-19 -39 -61 -39q-18 0 -31 8q-25 12 -33 38.5z" />
<glyph unicode="&#xf4;" d="M0 418q0 -188 133 -320.5t320 -132.5t319.5 132.5t132.5 320.5v588q0 188 -132.5 320t-319.5 132q-188 0 -320.5 -132.5t-132.5 -319.5v-588zM135 418v588q0 132 93 224.5t225 92.5t224.5 -92.5t92.5 -224.5v-588q0 -131 -92.5 -224.5t-224.5 -93.5t-225 93.5t-93 224.5z M264 1537.5q-8 26.5 4 51.5l80 162q12 26 39 34.5t53 -3.5q1 -1 11 -6q2 2 10 6q25 12 51.5 3.5t38.5 -34.5l82 -162q12 -25 3 -51.5t-34 -38.5q-13 -8 -31 -8q-43 0 -59 39l-61 121l-62 -121q-19 -39 -61 -39q-18 0 -31 8q-25 12 -33 38.5z" />
<glyph unicode="&#xf5;" d="M0 418q0 -188 133 -320.5t320 -132.5t319.5 132.5t132.5 320.5v588q0 188 -132.5 320t-319.5 132q-188 0 -320.5 -132.5t-132.5 -319.5v-588zM135 418v588q0 132 93 224.5t225 92.5t224.5 -92.5t92.5 -224.5v-588q0 -131 -92.5 -224.5t-224.5 -93.5t-225 93.5t-93 224.5z M227 1635q0 28 19 48q9 9 24 20.5t46 25.5t59 14q16 0 30 -1.5t27.5 -5.5t20 -6t19.5 -7.5t15 -6.5q28 -14 52 -14q15 5 32 22q19 19 47 19q29 0 50 -21q19 -19 19 -46.5t-19 -47.5q-10 -10 -24.5 -21t-45.5 -25.5t-59 -14.5q-55 0 -113 28q-26 13 -51 13q-7 0 -33 -21 q-20 -20 -47 -20q-26 0 -49 20q-19 20 -19 48z" />
<glyph unicode="&#xf6;" d="M0 418q0 -188 133 -320.5t320 -132.5t319.5 132.5t132.5 320.5v588q0 188 -132.5 320t-319.5 132q-188 0 -320.5 -132.5t-132.5 -319.5v-588zM135 418v588q0 132 93 224.5t225 92.5t224.5 -92.5t92.5 -224.5v-588q0 -131 -92.5 -224.5t-224.5 -93.5t-225 93.5t-93 224.5z M180 1640q0 62 44 106t106 44q74 0 121 -64q50 64 122 64q61 0 104.5 -44t43.5 -106t-43.5 -105.5t-104.5 -43.5q-73 0 -122 63q-46 -63 -121 -63q-62 0 -106 44t-44 105zM315 1640q0 -14 15 -14q14 0 14 14q0 15 -14 15q-6 0 -10.5 -4.5t-4.5 -10.5zM559 1640q0 -14 14 -14 q5 0 9 4t4 10t-4 10.5t-9 4.5q-14 0 -14 -15z" />
<glyph unicode="&#xf8;" horiz-adv-x="1116" d="M0 418v588q0 187 133.5 319.5t321.5 132.5q148 0 266 -88l16 31q13 26 40 34.5t52 -5.5q25 -12 33 -39.5t-4 -53.5l-37 -67q86 -120 86 -264v-588q0 -187 -133 -320t-319 -133q-154 0 -277 92l-10 -16q-19 -37 -59 -37q-11 0 -31 8q-25 13 -33 40t4 52l31 58 q-80 121 -80 256zM135 418q0 -52 21 -113l501 944q-90 74 -202 74q-132 0 -226 -93t-94 -224v-588zM242 180q89 -80 213 -80q131 0 224 93t93 225v588q0 60 -27 122z" />
<glyph unicode="&#xf9;" d="M0 418v948q0 28 20 48t48 20t47.5 -20t19.5 -48v-948q0 -132 93 -225t225 -93t224.5 93t92.5 225v948q0 28 20 48t48 20t47.5 -20t19.5 -48v-948q0 -188 -132.5 -320.5t-319.5 -132.5t-320 132.5t-133 320.5zM368 1743.5q8 26.5 33 38.5q26 12 53 3.5t40 -34.5l79 -162 q13 -25 4.5 -51.5t-34.5 -38.5q-11 -8 -29 -8q-42 0 -61 39l-80 162q-13 25 -5 51.5z" />
<glyph unicode="&#xfa;" d="M0 418v948q0 28 20 48t48 20t47.5 -20t19.5 -48v-948q0 -132 93 -225t225 -93t224.5 93t92.5 225v948q0 28 20 48t48 20t47.5 -20t19.5 -48v-948q0 -188 -132.5 -320.5t-319.5 -132.5t-320 132.5t-133 320.5zM342 1537.5q-8 26.5 4 51.5l80 162q12 26 39 34.5t53 -3.5 q25 -12 33.5 -38.5t-4.5 -51.5l-80 -162q-19 -39 -61 -39q-18 0 -31 8q-25 12 -33 38.5z" />
<glyph unicode="&#xfb;" d="M0 418q0 -188 133 -320.5t320 -132.5t319.5 132.5t132.5 320.5v948q0 28 -19.5 48t-47.5 20t-48 -20t-20 -48v-948q0 -132 -92.5 -225t-224.5 -93t-225 93t-93 225v948q0 28 -19.5 48t-47.5 20t-48 -20t-20 -48v-948zM277 1537.5q-8 26.5 4 51.5l79 162q12 26 39.5 34.5 t53.5 -3.5q2 -2 10 -6q2 2 10 6q25 12 51.5 3.5t38.5 -34.5l82 -162q12 -25 3 -51.5t-34 -38.5q-13 -8 -30 -8q-44 0 -60 39l-61 121l-62 -121q-19 -39 -61 -39q-18 0 -31 8q-24 12 -32 38.5z" />
<glyph unicode="&#xfc;" d="M0 418q0 -188 133 -320.5t320 -132.5t319.5 132.5t132.5 320.5v948q0 28 -19.5 48t-47.5 20t-48 -20t-20 -48v-948q0 -132 -92.5 -225t-224.5 -93t-225 93t-93 225v948q0 28 -19.5 48t-47.5 20t-48 -20t-20 -48v-948zM180 1640q0 62 44 106t106 44q74 0 121 -64 q50 64 122 64q61 0 104.5 -44t43.5 -106t-43.5 -105.5t-104.5 -43.5q-73 0 -122 63q-46 -63 -121 -63q-62 0 -106 44t-44 105zM315 1640q0 -14 15 -14q14 0 14 14q0 15 -14 15q-6 0 -10.5 -4.5t-4.5 -10.5zM559 1640q0 -14 14 -14q5 0 9 4t4 10t-4 10.5t-9 4.5 q-14 0 -14 -15z" />
<glyph unicode="&#xfd;" horiz-adv-x="911" d="M-77 1388q9 27 34 37q26 12 53 3t37 -35l264 -559l262 559q12 26 39 35t52 -3q26 -10 35 -37t-3 -53l-317 -676v-591q0 -28 -20 -48t-48 -20t-47.5 20t-19.5 48v591l-318 676q-12 26 -3 53zM203 1537.5q-8 26.5 4 51.5l80 162q12 26 39 34.5t53 -3.5q25 -12 33.5 -38.5 t-4.5 -51.5l-80 -162q-19 -39 -62 -39q-17 0 -30 8q-25 12 -33 38.5z" />
<glyph unicode="&#xfe;" horiz-adv-x="788" d="M0 68v1298q0 28 19.5 48t48.5 20q28 0 47.5 -20t19.5 -48v-256h53q163 0 277.5 -115t114.5 -278q0 -161 -115 -276t-277 -115h-53v-258q0 -28 -19.5 -48t-47.5 -20q-29 0 -48.5 20t-19.5 48zM135 461h53q106 0 181 75t75 181t-75 182t-181 76h-53v-514z" />
<glyph unicode="&#xff;" horiz-adv-x="911" d="M-77 1388q9 27 34 37q26 12 53 3t37 -35l264 -559l262 559q12 26 39 35t52 -3q26 -10 35 -37t-3 -53l-317 -676v-591q0 -28 -20 -48t-48 -20t-47.5 20t-19.5 48v591l-318 676q-12 26 -3 53zM41 1640q0 62 44 106t105 44q74 0 121 -64q50 64 123 64q61 0 104.5 -44 t43.5 -106t-43.5 -105.5t-104.5 -43.5q-74 0 -123 63q-46 -63 -121 -63q-62 0 -105.5 43.5t-43.5 105.5zM176 1640q0 -14 14 -14q15 0 15 14q0 6 -4.5 10.5t-10.5 4.5q-14 0 -14 -15zM420 1640q0 -14 14 -14q12 0 12 14q0 6 -3.5 10.5t-8.5 4.5q-14 0 -14 -15z" />
<glyph unicode="&#x152;" horiz-adv-x="1505" d="M-86 717q0 143 54 272.5t155 229.5q101 101 232 154.5t274 53.5q4 0 6 -2q2 2 6 2h547q29 0 48 -19.5t19 -47.5q0 -29 -19 -48.5t-48 -19.5h-479v-508h479q29 0 48 -19.5t19 -47.5t-19 -48t-48 -20h-479v-510h479q29 0 48 -19t19 -48q0 -28 -19 -48t-48 -20h-547h-6h-6 q-143 0 -274 54t-232 155q-101 99 -155 230t-54 274zM49 717q0 -147 69 -274t189 -207t266 -93v1145q-146 -13 -266 -92t-189 -205.5t-69 -273.5z" />
<glyph unicode="&#x153;" horiz-adv-x="1505" d="M-86 717q0 143 54 272.5t155 229.5q101 101 232 154.5t274 53.5q4 0 6 -2q2 2 6 2h547q29 0 48 -19.5t19 -47.5q0 -29 -19 -48.5t-48 -19.5h-479v-508h479q29 0 48 -19.5t19 -47.5t-19 -48t-48 -20h-479v-510h479q29 0 48 -19t19 -48q0 -28 -19 -48t-48 -20h-547h-6h-6 q-143 0 -274 54t-232 155q-101 99 -155 230t-54 274zM49 717q0 -147 69 -274t189 -207t266 -93v1145q-146 -13 -266 -92t-189 -205.5t-69 -273.5z" />
<glyph unicode="&#x178;" horiz-adv-x="911" d="M-77 1388q9 27 34 37q26 12 53 3t37 -35l264 -559l262 559q12 26 39 35t52 -3q26 -10 35 -37t-3 -53l-317 -676v-591q0 -28 -20 -48t-48 -20t-47.5 20t-19.5 48v591l-318 676q-12 26 -3 53zM41 1640q0 62 44 106t105 44q74 0 121 -64q50 64 123 64q61 0 104.5 -44 t43.5 -106t-43.5 -105.5t-104.5 -43.5q-74 0 -123 63q-46 -63 -121 -63q-62 0 -105.5 43.5t-43.5 105.5zM176 1640q0 -14 14 -14q15 0 15 14q0 6 -4.5 10.5t-10.5 4.5q-14 0 -14 -15zM420 1640q0 -14 14 -14q12 0 12 14q0 6 -3.5 10.5t-8.5 4.5q-14 0 -14 -15z" />
<glyph unicode="&#x2000;" horiz-adv-x="895" />
<glyph unicode="&#x2001;" horiz-adv-x="1790" />
<glyph unicode="&#x2002;" horiz-adv-x="895" />
<glyph unicode="&#x2003;" horiz-adv-x="1790" />
<glyph unicode="&#x2004;" horiz-adv-x="596" />
<glyph unicode="&#x2005;" horiz-adv-x="447" />
<glyph unicode="&#x2006;" horiz-adv-x="298" />
<glyph unicode="&#x2007;" horiz-adv-x="298" />
<glyph unicode="&#x2008;" horiz-adv-x="223" />
<glyph unicode="&#x2009;" horiz-adv-x="358" />
<glyph unicode="&#x200a;" horiz-adv-x="99" />
<glyph unicode="&#x2010;" horiz-adv-x="911" d="M0 674q0 29 20 48t48 19h567q29 0 48 -19t19 -48q0 -28 -19 -48t-48 -20h-567q-28 0 -48 20t-20 48z" />
<glyph unicode="&#x2011;" horiz-adv-x="911" d="M0 674q0 29 20 48t48 19h567q29 0 48 -19t19 -48q0 -28 -19 -48t-48 -20h-567q-28 0 -48 20t-20 48z" />
<glyph unicode="&#x2012;" horiz-adv-x="911" d="M0 674q0 29 20 48t48 19h567q29 0 48 -19t19 -48q0 -28 -19 -48t-48 -20h-567q-28 0 -48 20t-20 48z" />
<glyph unicode="&#x2013;" horiz-adv-x="1312" d="M0 674q0 29 20 48t48 19h972q29 0 48.5 -19t19.5 -48q0 -28 -19.5 -48t-48.5 -20h-972q-28 0 -48 20t-20 48z" />
<glyph unicode="&#x2014;" horiz-adv-x="1761" d="M0 674q0 29 19.5 48t48.5 19h1419q28 0 47.5 -19t19.5 -48q0 -28 -19.5 -48t-47.5 -20h-1419q-29 0 -48.5 20t-19.5 48z" />
<glyph unicode="&#x2018;" horiz-adv-x="368" d="M-28 1298.5q-9 26.5 3 51.5l41 82q12 24 38.5 32t51.5 -4q26 -12 34.5 -38.5t-3.5 -51.5l-41 -82q-16 -37 -59 -37q-16 0 -31 9q-25 12 -34 38.5z" />
<glyph unicode="&#x2019;" horiz-adv-x="368" d="M-28.5 1421.5q8.5 26.5 34.5 38.5q25 12 51.5 4t38.5 -32l41 -82q12 -25 3 -51.5t-34 -38.5q-15 -9 -30 -9q-44 0 -60 37l-41 82q-12 25 -3.5 51.5z" />
<glyph unicode="&#x201c;" horiz-adv-x="565" d="M-28 1298.5q-9 26.5 3 51.5l41 82q12 24 38.5 32t51.5 -4q26 -12 34.5 -38.5t-3.5 -51.5l-41 -82q-16 -37 -59 -37q-16 0 -31 9q-25 12 -34 38.5zM175 1298.5q-9 26.5 3 51.5l41 82q12 24 38.5 32t51.5 -4q26 -12 34.5 -38.5t-3.5 -51.5l-41 -82q-16 -37 -59 -37 q-16 0 -31 9q-25 12 -34 38.5z" />
<glyph unicode="&#x201d;" horiz-adv-x="565" d="M-28.5 1421.5q8.5 26.5 34.5 38.5q25 12 51.5 4t38.5 -32l41 -82q12 -25 3 -51.5t-34 -38.5q-15 -9 -30 -9q-44 0 -60 37l-41 82q-12 25 -3.5 51.5zM174.5 1421.5q8.5 26.5 34.5 38.5q25 12 51.5 4t38.5 -32l41 -82q12 -25 3 -51.5t-34 -38.5q-15 -9 -30 -9q-44 0 -60 37 l-41 82q-12 25 -3.5 51.5z" />
<glyph unicode="&#x202f;" horiz-adv-x="358" />
<glyph unicode="&#x205f;" horiz-adv-x="447" />
<glyph unicode="&#x20ac;" horiz-adv-x="1114" d="M-160 547q0 28 19.5 47.5t48.5 19.5h12v109h-12q-29 0 -48.5 20t-19.5 48t19.5 47.5t48.5 19.5h12v154q0 187 132.5 319.5t320.5 132.5q187 0 319.5 -132t132.5 -320q0 -29 -19 -48.5t-48 -19.5q-28 0 -48 19.5t-20 48.5q0 131 -92.5 224t-224.5 93q-131 0 -224.5 -93.5 t-93.5 -223.5v-154h297q29 0 48.5 -19.5t19.5 -47.5t-19.5 -48t-48.5 -20h-297v-109h297q29 0 48.5 -19.5t19.5 -47.5t-19.5 -48t-48.5 -20h-297v-63q0 -130 93.5 -224t224.5 -94q132 0 224.5 93.5t92.5 224.5q0 28 20 47.5t48 19.5q29 0 48 -19.5t19 -47.5 q0 -188 -132.5 -320.5t-319.5 -132.5t-320 132.5t-133 320.5v63h-12q-29 0 -48.5 20t-19.5 48z" />
<glyph unicode="&#x2122;" horiz-adv-x="1220" d="M0 707q0 138 68.5 255.5t186 186t255.5 68.5q139 0 257 -68.5t186.5 -186t68.5 -255.5q0 -212 -150 -362t-362 -150q-138 0 -255.5 68.5t-186 186.5t-68.5 257zM135 707q0 -155 110 -266t265 -111t266 111t111 266t-110.5 264.5t-266.5 109.5q-155 0 -265 -109.5 t-110 -264.5zM266 846q0 17 12 29t29 12h164q14 0 25 -8q8 8 16 8q15 3 28 -4t19 -21l53 -135l54 135q6 14 19 21t28 4q14 -3 23 -14.5t9 -26.5v-293q0 -19 -11.5 -31t-28.5 -12t-29 12t-12 31v80l-13 -31q-10 -27 -39 -27t-39 27l-12 31v-80q0 -19 -12 -31t-29 -12t-29 12 t-12 31v252h-8h-41v-252q0 -19 -12 -31t-29 -12t-29 12t-12 31v252h-41q-17 0 -29 12t-12 29z" />
<glyph unicode="&#xe000;" horiz-adv-x="1433" d="M0 0v1434h1434v-1434h-1434z" />
</font>
</defs>
</svg>
